<?xml version="1.0" encoding="utf-8"?>
<!-- Generator: Adobe Illustrator 24.0.1, SVG Export Plug-In . SVG Version: 6.00 Build 0)  -->
<svg version="1.1" id="Layer_1" xmlns="http://www.w3.org/2000/svg" xmlns:xlink="http://www.w3.org/1999/xlink" x="0px" y="0px"
	 viewBox="0 0 2000 1000" style="enable-background:new 0 0 2000 1000;" xml:space="preserve">
<style type="text/css">
	.st0{fill-rule:evenodd;clip-rule:evenodd;fill:#FF5050;}
	.st1{fill-rule:evenodd;clip-rule:evenodd;fill:#384A66;}
	.st2{fill-rule:evenodd;clip-rule:evenodd;fill:#FFFFFF;}
	.st3{fill-rule:evenodd;clip-rule:evenodd;fill:#030C1A;}
	.st4{fill-rule:evenodd;clip-rule:evenodd;fill:#FFFBFC;}
	.st5{fill-rule:evenodd;clip-rule:evenodd;fill:#759097;}
	.st6{fill-rule:evenodd;clip-rule:evenodd;fill:#FFFFFF;filter:url(#Adobe_OpacityMaskFilter);}
	.st7{mask:url(#b_2_);fill-rule:evenodd;clip-rule:evenodd;fill:#030C1A;}
	.st8{fill-rule:evenodd;clip-rule:evenodd;fill:#FFFFFF;filter:url(#Adobe_OpacityMaskFilter_1_);}
	.st9{mask:url(#c_2_);fill-rule:evenodd;clip-rule:evenodd;fill:url(#SVGID_1_);}
</style>
<g>
	<path class="st0" d="M951.12,549.43c-4.59-1.49-9.03-1.85-12.44-1.24l-0.01-0.01l0,0.01c-3.12,0.56-5.38,1.94-6.06,4.05
		c-0.58,1.77,0.06,3.78,1.57,5.74l-1.96,4.27l28.11,9.82l4.13-9.47C965.88,558.19,959.92,552.29,951.12,549.43"/>
	<path class="st1" d="M1330.19,506.97c0-7.27-6.28-13.56-7.6-15.54c-1.32-1.98-9.43-13.97-9.43-13.97s-0.3-20.23-3.43-31.13
		c-3.12-10.9-11.81-14.41-17.37-16.85c-4.71-2.07-13.59-15.48-16.18-19.51c-0.47-0.74-1.22-1.26-2.07-1.46l-0.22-0.05
		c-1.8-0.42-3.64,0.68-4.06,2.48c-0.7,2.99,1.01,6.62,1.57,7.7c-0.44-0.71-1.74-2.2-4.09-0.14c-2.97,2.59,0.99,6.78,0.99,6.78
		s-0.98,0.52-0.98,2.32c0,1.8,12.47,15.19,12.47,15.19l0.6,9.77l-15.17-12.63c-6.08-3.45-8.95-0.6-10.17,1.62
		c-0.56,1.01-0.3,2.28,0.6,3.01c5.61,4.53,11.38,14.02,11.38,14.02c4.66,11.88,13.67,18.49,14.72,20c1.05,1.5,0.45,2.71-0.3,6.32
		c-0.75,3.61,0.45,7.67,0.45,9.77c0,2.1-0.3,7.82-0.3,9.17s3.61,4.06,3.61,5.26c0,1.2-2.4,3.46-2.4,3.46
		c-2.25,13.83,4.06,16.54,4.96,17.89c0.9,1.35,1.05,4.96,1.05,4.96c-5.86,3.01,0,14.73,0,14.73c-5.26-2.11-1.25,2-7.74,2
		c-6.49,0-21.08,6.9-29.6,7.3c-4.35,0.21-14.11,2.85-22.6,5.39c1.46-4.59,2.06-10.11-2.46-12.11c1.2-5.23,1.83-10.69,1.83-16.32
		c0-37.44-28.11-67.8-62.77-67.8c-34.67,0-62.77,30.35-62.77,67.8c0,16.56,5.5,31.73,14.64,43.51l0,0c0,0-5.61,6.01-2.54,13.44
		c-3.07,1.11-5.53,2.1-5.53,2.1s-6.71,5.84-14.87,5.84c-8.16,0-17.79,6.13-20.41,7c-2.62,0.88-14.58,3.79-16.04,5.84
		c-1.46,2.04-10.2,1.75-15.16,1.75c-4.96,0-10.79,1.75-13.41,2.92c-2.62,1.17-11.66,5.84-13.12,5.84c-1.46,0-5.83-2.63-8.16-3.79
		c-2.33-1.17-11.66-10.8-16.62-12.26c-4.96-1.46-9.62-3.79-9.62-3.79s-10.79-5.55-12.83-5.55s-5.25-9.92-5.25-14.01
		c0-4.08,0.29-19.55,0.29-19.55s-9.91-13.42-13.12-14.3c-3.21-0.88-15.74-1.17-16.91-1.17c-1.17,0-4.37,7.29-4.37,8.46
		c0,1.17-1.75,1.46-2.33,2.33c-0.58,0.88-2.04,5.54-2.92,7.3c-0.87,1.75-2.92,2.33-3.21,4.67c-0.29,2.33,0.87,11.09,0.87,13.42
		c0,2.33,23.91,31.52,23.91,31.52l1.46,7c0,0,7.29,10.21,9.33,14.59c2.04,4.38,11.08,11.67,15.45,16.05
		c4.37,4.38,11.37,7.29,11.37,7.29s11.66,7.88,18.37,8.75c6.71,0.88,2.33,5.84,15.16,5.84c12.83,0,67.65-13.72,67.65-13.72
		l5.54,3.21c0,0-4.37,28.89-4.37,32.39c0,3.5,3.5,7.3,2.62,8.46c-0.87,1.17-9.62,6.71-10.66,11.09
		c-1.04,4.38-9.46,11.09-27.24,11.96c-17.79,0.88-57.44,14.3-72.31,16.63c-14.87,2.33-19.54,8.46-26.83,8.75
		c-7.29,0.29-9.91,4.96-14.58,11.67c-4.67,6.71-22.74,87.55-22.74,87.55s-2.92,21.59-2.92,23.35c0,1.75-0.88,18.97-0.88,24.8
		c0,5.84,1.46,8.75,1.46,8.75s-16.04,27.72-23.33,33.56c-7.29,5.84-34.99,10.8-48.99,9.63c-14-1.17-14,6.42-14,6.42h-2.92
		l-2.33,8.75c18.66,9.63,40.24,14.89,40.24,14.89c21.87-0.88,38.49,0.58,38.49,0.58l4.37,5.84l30.32,4.96c0,0,3.5-20.43,3.5-22.47
		c0-2.04,2.04-6.13,2.62-10.8c0.58-4.67-0.58-8.17,0-11.96c0.58-3.79,0-7.88,0-11.4c0-3.52,3.21-7.57,3.21-12.24
		c0-4.67,6.71-9.34,6.71-9.34s8.46-6.13,9.62-14.01c1.17-7.88,8.46-13.13,13.41-18.68c4.96-5.55,7.29-11.67,10.5-25.1
		c3.21-13.42,17.79-24.8,18.08-25.68c0.29-0.88,20.41-10.51,28.87-12.84c8.46-2.33,27.99-6.71,32.66-7.3
		c4.67-0.58,14.58-5.55,26.53-5.55c11.95,0,34.7-2.33,34.7-2.33l1.17,16.93c0,0,1.46,14.3,1.46,21.59c0,7.29,1.46,20.14,1.46,25.68
		c0,5.54,6.71,12.26,7.29,21.01c0.58,8.75-3.79,19.84-7.58,19.55s-11.37,2.33-14.58,3.21c-3.21,0.88-7.29,9.63-7.29,9.63
		c-4.96,32.1,9.79,35.89,9.79,35.89c16.5,2.63,18.78,7,18.78,7l-1.75,7.59c0,4.38,15.45,14.01,15.45,14.01
		c23.62,3.21,26.53-11.38,26.53-11.38c3.21-16.34-1.46-32.98-1.46-35.89c0-2.92-1.75-16.93-1.75-21.59s2.04-20.43,2.33-22.76
		c0.29-2.33,5.54-6.42,10.21-12.55c4.67-6.13,12.83-39.98,13.41-44.65c0.58-4.67,4.67-15.76,4.96-19.55
		c0.29-3.79,1.17-7.88,2.92-9.63c0.66-0.66,1.99-1.01,3.39-1.19c4.99-0.64,9.38-3.74,11.77-8.17c11.79-21.84,8.46-71.26,8.46-71.26
		l-2.64-11.9c0,0,7.93-9.92,7.93-18.85c0-8.93,7.93-12.23,10.57-20.17c2.64-7.94,11.56-35.38,11.56-40.34
		c0-4.96,0.66-17.85,2.97-18.19c2.31-0.33,38.98-16.2,43.94-18.85c4.96-2.64,7.93-3.64,13.21-6.28c5.29-2.64,12.22-9.26,12.88-17.52
		c0.66-8.27,5.95-26.12,5.95-30.09S1330.19,514.24,1330.19,506.97"/>
	<path class="st2" d="M1088.93,708.86c-0.04-0.11-0.08-0.21-0.12-0.32c0.04,0.1,0.09,0.2,0.13,0.29
		C1088.94,708.84,1088.93,708.85,1088.93,708.86 M1216.07,557.49c-4.72,1.9-10.89,3.83-17.83,5.72c-1.29,0.35-2.22-1.23-1.28-2.19
		c2.44-2.49,4.18-5.06,6.21-7.66c8.59-10.98,10.97-32.95-2.3-45.84c-13.26-12.89,2.3-25.31,2.3-25.31
		c-20.03-15.28-37.72-13.6-37.72-13.6c-33.89,0.24-48.96,25.37-48.96,25.37c0,0-15.84,16.89-13.72,49.99c0,0,0.03-1.07,0.18-2.91
		c1.66,23.13,14.35,38.85,14.35,38.85c-5.46,5.11-3.83,10.61-2.94,12.63l-2.92,1.66c-1.17,0.66-2.29,1.4-3.34,2.23
		c-2.21,1.76-7.42,5.24-13.73,4.85c-6.31-0.39-14.64,3.75-18.41,5.84c-1.36,0.75-2.8,1.32-4.31,1.68
		c-3.8,0.91-11.21,2.91-13.72,5.32c0,0-3.02,2.03-17.22,1.72c-9.32-0.21-16.95,3.64-21.09,6.31c-2.34,1.51-5.27,1.78-7.81,0.66
		c-2.83-1.25-6.02-2.86-6.3-3.91c-0.51-1.91-12.73-10.27-12.73-10.27s-25.33-12.95-26.35-9.18c-1.93,7.13-5.1,13.99-10.18,19.37
		c-0.51,0.54-0.81,1.28-0.66,2c0.21,1.09,1.23,1.3,2.11,1.3c5.38,0,9.28-5.25,14.44-6.77c0.57-0.17,1.21-0.28,1.72,0.01
		c0.51,0.29,0.75,0.9,0.91,1.46c1.14,3.93,1.11,8.75,4.41,11.17c3.69,2.7,8.95,0.5,13.39,1.59c5.05,1.25,8.12,6.48,12.88,8.59
		c4.07,1.81,8.85,1.06,13.02-0.49c4.17-1.56,8.04-3.88,12.27-5.3c6.38-2.14,13.47-2.11,19.83,0.11c2.36,0.82,4.82,1.95,7.26,1.4
		c1.51-0.34,2.8-1.3,4.1-2.16c6.36-4.24,13.91-6.68,21.55-6.95c1.88-0.07,3.79-0.01,5.61-0.47c3.96-1.01,7.21-4.4,11.29-4.56l0.04,0
		c2.1-0.08,3.59,2,2.86,3.97c-6.32,17.16-11.79,34.64-16.37,52.35c-2.08,8.04-3.97,16.6-1.46,24.52c0.77,2.44,1.95,4.84,3.06,7.24
		c-0.5,0.38-6.61,5.03-8.18,7.09c-1.64,2.15-2.47,2.74-3.92,6.74c0,0-4.19,4.85-10.61,6.64c-6.42,1.79-16.02,2.39-20.06,3.02
		c-4.04,0.62-11.21,0.99-12.89,1.51c-1.68,0.53-5.33,2.16-5.93,2.29c-0.6,0.13-35.03,9.3-35.03,9.3l-12.32,2.74
		c0,0-7.4,0.32-13.75,3.79c-6.36,3.48-9.68,4.32-9.68,4.32s-4.05,1.43-6.42,1.13c-2.37-0.29-6,1.81-9.4,6.65
		c-3.39,4.84-7.6,7.81-7.6,10.44c0,2.63,0.29,5.28,0.09,5.96c-0.2,0.68-4.51,16.17-6.51,19.65c-2,3.48-1.26,6.22-1.26,6.22
		s-3.58,17.6-4.95,20.02c-1.37,2.42-1.47,4-1.47,5.16c0,1.16-2.01,11.95-2.34,13.92c-0.33,1.97-4.48,4.42-3.28,7.72
		c1.2,3.3-2.22,17.05-1.97,21.85c0.25,4.8-0.33,12.81-0.33,12.81s-2.6,19.22,1.16,25.55l11.23,8.15c0,0,22.17-21.91,18.46-35.38
		c-3.71-13.47-1.9-11.3,0-24.73c1.89-13.43,15.35-33.63,15.35-40.36v-27.52c2.51,0.99,4.81,2.84,7.21,4.19
		c0.98,0.56,2.07,1.05,3.19,0.96c1.12-0.09,2.26-0.95,2.28-2.08c0.03-1.56-1.88-3.21-0.82-4.35c0.29-0.31,0.72-0.43,1.13-0.52
		c2.45-0.54,5.11-0.42,7.3-1.64c0.51-0.28,1.03-0.73,1.02-1.31c-0.01-0.61-0.6-1.04-1.13-1.33c-1.56-0.86-3.23-1.5-4.96-1.92
		c2.47-1.34,4.83-3.11,6.71-5.46c7.33-9.17,22.45-12.84,28.41-12.84c5.96,0,32.53-11,33.9-11c1.38,0,4.12-7.34,12.83-7.34
		s26.12-15.13,26.12-15.13s3.7-2.85,6.57-7.51c3.55-1.5,7.31-2.53,11.13-3.01c4.86-0.61,10.18-0.49,14.05-3.5
		c0.34-0.27,0.7-0.62,0.66-1.05c-0.03-0.34-0.3-0.6-0.56-0.83c-1.62-1.42-3.38-2.66-5.26-3.71c-1.04-0.58-2.17-1.16-2.73-2.2
		c-0.42-0.78-0.44-1.67-0.32-2.56c4.21-7.9,7.29-17.38,14.14-22.94c6.42-5.22,15.26-6.22,22.5-10.22c7.24-4,12.66-14.3,6.97-20.31
		c-1.52-1.61-3.64-2.64-4.85-4.49c-2.21-3.39-0.44-8.02,2.17-11.11c2.61-3.09,6.07-5.58,7.83-9.23c3.48-7.21-0.86-15.55-1.66-23.52
		c-0.04-0.38-0.07-0.77-0.09-1.15c-0.5-9.48,5.98-17.91,15.11-20.45c28.77-8.01,44.5-19.23,51.57-25.52
		C1218.27,558.57,1217.29,557,1216.07,557.49"/>
	<path class="st3" d="M1107.62,511.24c0,0,7.17-11.89,28.62-16.04c23.35-4.51,47.35,3.79,63.42,21.33c0.78,0.85,1.21,1.97,1.21,3.12
		v16.31c0,1.32-0.4,2.61-1.16,3.69c-3.35,4.78-14.27,18.01-37.01,25.63c-18.96,6.35-39.85,3.37-55.85-8.63
		c-0.6-0.45-1.19-0.91-1.79-1.38C1105.07,555.29,1096.9,528.44,1107.62,511.24"/>
	<path class="st1" d="M519.82,233.66c1.46-2.64,3.88-4.69,6.83-5.31c9.04-1.9,13.58,9.95,21.89,10.61
		c6.95,0.55,12.85-7.09,19.71-5.81c5.44,1.01,8.18,6.94,10.6,11.92c2.42,4.98,6.86,10.43,12.26,9.22c2.56-0.58,4.53-2.57,6.8-3.9
		c4.04-2.37,9.23-2.37,13.43-0.37c2.86,1.36,6.33,0.36,8.11-2.25c2.53-3.7,5.43-7.1,9.16-9.52l0.03-0.02
		c2.22-1.44,3.51-3.97,3.29-6.61c-0.1-1.13-0.23-2.26-0.42-3.38c-2.28-13.66-11.35-25.27-14.96-38.64
		c-3.17-11.71-2.06-24.43-6.5-35.72c-5.42-13.79-18.9-25.14-17.99-39.93c0,0-17.86,1.64-21.88,3.2c-4.02,1.57-10.8,4.18-10.8,6.79
		c0,2.61-5.89,11.49-4.51,13.58c1.38,2.09,10.77,13.58,10.77,17.76c0,4.18,4.38,15.15,4.54,16.71c0.13,1.25,0.05,7.13,0.02,9.47
		c-2.02-2.64-4.34-5.05-6.65-7.44c-1.45-1.5-2.98-3.05-4.97-3.65c-0.3-0.09-0.6-0.16-0.91-0.22c-1.48-1.31-3.06-2.63-4.69-3.94
		c-1.09-2.33-3.45-6.51-6.84-7.97c-0.22-0.1-0.7-0.28-1.42-0.55c-0.54-0.25-1.08-0.45-1.65-0.61
		c-20.07-7.38-127.73-45.44-127.73-45.44c-14.38-6.17-35.61,2.4-36.63,2.4s-13.01,8.57-15.07,8.91c-2.05,0.34-11.3,7.54-15.41,8.91
		c-4.11,1.37-24.69,11.74-24.69,11.74s-19.73,7.35-21.47,7.35c-1.74,0-10.25,6-12.96,6.19c-2.71,0.19-5.61,4.06-6.58,4.25
		c-0.97,0.18-2.51,0.4-3.87,0.02c-1.35-0.37-6.38,3.86-7.74,3.86s-11.88,7.95-14.11,7.95c-2.23,0-5.79,2.01-7.02,1.89
		c-1.22-0.11-8.91-3.79-8.91-3.79l-9.8-8.91l-7.24-1c-5.01,1-6.12,4.9-6.12,5.91c0,1,4.45,4.12,4.45,4.12s-5.79-1-7.46-1.34
		c-1.67-0.33-3.45,2.01-4.01,2.9c-0.56,0.89-2.67,6.13-2.78,6.6c-0.01,0.05-0.06,0.09-0.13,0.12c-1.91,0.8-3.54,2.13-4.2,4.09
		c-1.14,3.39-2.86,8.08-4.57,11.18c-2.96,5.33-3.55,17.17,2.37,17.76c5.92,0.59,7.1-4.74,7.1-4.74l13.61,4.14l7.69,8.88
		c0,0,6.51,7.1,8.28,7.1c1.77,0,18.34,1.78,23.37,1.78c5.03,0,16.27,4.14,20.41,4.14c4.14,0,19.52-9.47,23.07-9.47
		c3.55,0,28.99-12.43,28.99-12.43l-2.37,10.06c0,0-6.51,18.35-6.51,25.46c0,7.1-27.8,100.64-27.8,100.64s-10.06,27.23-10.06,32.56
		c0,5.33-3.55,14.21-8.28,26.05c-4.73,11.84-28.99,24.86-28.99,27.82c0,2.96-20.11,18.35-20.11,18.35l-17.15,24.27l-7.1,9.47
		c0,0-7.69,12.78-5.92,17.17c5.17,12.78-7.1,7.1-15.97,7.1c-8.87,0-8.28,11.25-10.06,13.62c-1.77,2.37-28.99,20.72-31.94,25.46
		c-2.96,4.74-14.2,20.13-16.56,27.82c-2.37,7.7-18.34,18.94-18.93,24.86c-0.59,5.92-18.34,17.76-23.07,22.5
		c-4.73,4.74-22.48,20.13-22.48,20.13s-12.42,15.39-15.97,15.98c-3.55,0.59-22.48,12.43-24.84,12.43c-2.37,0-5.91,24.27-5.91,24.27
		s31.35,36.11,37.86,36.11c6.51,0,24.25-10.66,26.03-13.62c1.77-2.96,3.55-18.35,3.55-20.72c0-2.37,8.28-15.39,11.24-15.98
		c2.96-0.59,18.34-18.94,18.34-18.94s17.15-13.02,26.03-18.94c8.87-5.92,43.18-24.86,43.18-24.86s21.89-1.78,26.62-1.78
		c4.73,0,18.34-7.7,28.39-13.02c10.06-5.33,14.79-15.39,23.66-19.54c8.87-4.14,14.2-14.8,17.15-21.91
		c2.96-7.1,13.01-14.21,18.93-21.9c5.92-7.7,15.97-14.8,19.52-19.54c3.55-4.74,11.83-18.35,11.83-18.35s2.37-12.43,8.28-16.58
		c5.92-4.14,7.1-8.29,9.47-14.21c2.37-5.92,13.61-17.76,13.61-17.76s13.01,8.29,13.01,17.76s7.1,19.54,7.1,27.82
		c0,8.29-5.92,34.34-5.92,43.81c0,9.47-1.18,12.43-5.32,12.43c-4.14,0-10.65,8.29-11.83,12.43c-1.18,4.14-8.28,8.88-17.75,13.62
		c-9.46,4.74-8.3,18.61-15.99,24.53c-7.69,5.92-9.44,6.85-18.91,11.58c-9.47,4.74-17.75,20.13-19.52,24.86
		c-1.78,4.74-23.07,20.13-31.94,31.38c-8.87,11.25-24.84,16.58-27.8,20.13c-2.96,3.55-17.15,5.92-17.15,5.92
		s-23.66,10.06-30.17,17.76c-6.51,7.7,1.18,23.68,2.96,32.56c1.77,8.88,17.15,12.43,20.11,18.94c1.59,3.49,2.32,12.93,2.66,20.93
		c0.51,12.01,5.28,23.52,13.72,32.07c7.95,8.06,16.88,13.13,24.73,16.31c13.96,5.65,29.73-3,32.29-17.85
		c0.68-3.94,0.99-7.67,1.12-10.68c0.17-4.03-0.61-8.05-2.35-11.68c-12.75-26.68-5.33-41.53-5.33-41.53
		c4.73-15.39,65.07-50.91,67.43-51.51c2.37-0.59,17.75-3.55,24.84-3.55c7.1,0,27.8-20.13,33.13-22.5
		c5.32-2.37,47.32-26.64,69.21-56.24c21.89-29.6,20.7-65.71,20.7-71.04c0-5.33,2.96-29.6,0.59-72.23
		c-2.37-42.63-13.01-72.82-13.01-75.19c0-2.37,5.32-24.27,5.32-27.23c0-2.96,10.65-25.46,10.65-33.15c0-7.7,8.28-22.5,8.87-24.86
		c0.59-2.37,5.92-9.47,8.87-17.76c2.96-8.29,7.1-21.31,7.1-21.31s7.83-19.6,9.55-32.25C517.59,245.14,516.82,239.1,519.82,233.66"/>
	<path class="st0" d="M943.73,583.51c-7.35-1.87-14.07-0.38-15,3.32l-0.76,2.98l1.4,0.36c1.62,2.76,5.74,5.42,10.96,6.75
		c5.22,1.33,10.11,0.95,12.85-0.7l1.4,0.36l0.76-2.98C956.28,589.89,951.08,585.38,943.73,583.51"/>
	<path class="st1" d="M403.92,108.33l-35.49-11.16c-4.16-1.31-8.61,0.94-10.02,5.07l-82.77,241.8c-0.7,2.03,0.38,4.25,2.41,4.96
		l135.32,58.8c6.69,2.91,14.45-0.41,16.96-7.27l84.22-229.2c2.08-5.67-0.53-11.99-6.01-14.53L403.92,108.33z"/>
	<path class="st2" d="M210.73,179.37c2.02,6.47,8.18,11.31,14.85,12.17c1.89,0.24,3.11,2.06,2.64,3.91
		c-0.63,2.47-0.84,5.05-0.63,7.59c0.22,2.69,3.81,3.5,5.1,1.12c2.27-4.22,5.09-8.15,8.35-11.65c2.02-2.17,5.33-2.36,7.73-0.62
		c2.37,1.72,5.8,2.31,8.72,1.53c4.61-1.25,8.15-4.85,11.43-8.31c1.96-2.07,3.99-4.2,6.28-5.86c2.16-1.57,5.24-0.54,6,2.02
		c1.43,4.9,4.34,9.32,9.24,8.21c1.2-0.27,2.3-0.86,3.25-1.64c5.97-4.83,11.07-10.73,15-17.33c0.8-1.35,2.24-2.28,3.81-2.22
		c3.88,0.16,3.52,5.78,6.51,7.53c5.23,3.05,10.82-8.98,15.81-5.54c7.12-12.67,16.99-31.2,18.7-45.64
		c-11.05,8.32-29.21,18.24-41.95,23.63c-3.3,1.4-7.76,0.82-11.06,2.22c-3.88,1.64-6.22,4.44-10.1,6.09
		c-0.97,0.41-2.45,0.36-3.48,0.79c-8.33,3.51-17.85,8.84-22.55,11.83c-1.1,0.7-2.87,1.65-4.16,2.55c-1.01,0.71-2.61,1.32-3.37,1.48
		c-1.64,0.34-4.93,1.26-7.02,1.89c-0.94,0.29-1.51-0.58-2.48-0.85c-1.23-0.34-3.63-1.37-6.43-2.94c-1.69-0.95-3.01-2.75-4.12-3.75
		c-2.41-2.18-4.04-4-5.67-5.16l-7.24-1c-2.47,0.5-5.34,2.08-6.13,5.91c-0.14,0.69,2.35,3.59,4.45,4.12c-1.86,0.21-7-1.86-8.46-1.35
		c-1.6,0.55-3.1,1.97-5.71,8.8"/>
	<path class="st2" d="M431.55,581.76c-3.58-5.21-7.57-9.77-11.3-13.53c-12.02-12.12-18.88-28.49-18.97-45.56c0-0.18,0-0.35,0-0.53
		c0-17.59-2.93-16.62,0-27.37c2.93-10.75,9.77-10.75,0-22.48c-9.77-11.73-43.68-15.63-43.68-15.63l7.72,10.54
		c3,4.1,4.88,8.89,5.52,13.93c0.24,1.84,0.64,3.97,1.32,6.25c1.35,4.59,6.11,9.62,5.55,14.86c-1.06,9.89-5.73,21.84-5.73,31.62
		c0,7.42-3.17,17.75-4.7,22.31c-3.49,0.21-7.54,6.53-9.68,9.29c-1.57,2.02-6.27,11.68-8.68,12.57
		c-15.25,5.66-17.04,10.38-28.39,20.99c-2.95,2.76-4.71,8.01-7.39,11.03c-2.57,2.9-6.88,3.27-10.38,4.92
		c-7.66,3.61-10.59,12.7-14.38,20.28c-12.64,25.23-40.11,38.59-62.04,56.33c-2.31,1.87-4.74,4.11-5.03,7.07c0,0-9.1,2.89-15.73,4.3
		c-6.63,1.41-21,10.66-21,10.66l-9.17,7.1c0,0,39.41,0.67,62.12,50.99c0.79,1.75,3.42,1,3.16-0.9c-0.01-0.09-0.03-0.19-0.04-0.28
		c-0.46-3.4,1.69-6.52,4.96-7.55c2.08-0.65,4.29-2.17,6.36-5.19c6.74-9.81-4.9-14.71,0-28.81c2.49-7.18,5.14-13.76,7.14-18.5
		c1.87-4.44,5.31-8.03,9.65-10.11l0.06-0.03c2.43-1.17,4.89-2.54,6.47-4.72c1.93-2.67,2.29-6.16,3.74-9.12
		c4.47-9.18,16.81-10.27,25.78-15.13c14.46-7.85,20.39-26.25,34.32-35.01c7.75-4.88,18.24-7.13,22.09-15.45
		c1.75-3.77,1.71-8.14,3.14-12.04c1-2.74,3.28-5.36,5.9-6.19c2.07-0.66,3.6-2.42,3.72-4.59c0.09-1.65,1.52-3.08,3.17-3.05
		c5.34,0.07,11.24,4.27,15.79,0.83c2.18-1.65,3.06-4.5,2.56-7.19c-0.94-5.16-5.03-8.32-8.94-11.26c8.67,1.27,17.34,2.53,26,3.8
		c2.61,0.38,4.23-2.68,2.5-4.67c-0.99-1.14-2.19-2.16-3.71-3.05C426.47,582.14,437.08,589.81,431.55,581.76"/>
	<path class="st0" d="M954.58,596.58c-0.94,3.7-7.66,5.19-15,3.32s-12.54-6.38-11.6-10.09c0.94-3.7,7.66-5.19,15-3.32
		C950.32,588.36,955.52,592.87,954.58,596.58"/>
	<path class="st3" d="M953.15,596.21c-0.84,3.31-6.84,4.63-13.4,2.96c-6.56-1.67-11.2-5.7-10.36-9.01c0.84-3.31,6.84-4.63,13.4-2.96
		C949.36,588.88,953.99,592.91,953.15,596.21"/>
	<path class="st2" d="M296.02,359.94c-0.17-1.54-0.15-3.1,0.11-4.63c-2.34-1.53-9.83,8.7-9.14,28.05c0.2,5.61-3.52,15.2-6.61,19.89
		c-4.03,6.13-9.63,13.86-15.43,18.35c-21.91,16.98-41.59,36.84-58.38,58.9c-3.52,4.62-6.97,9.47-8.59,15.05
		c-0.78,2.68-1.05,5.59-0.71,8.36c0.37,3-2.02,5.65-5.04,5.49c-3.19-0.18-6.38,0.26-9.35,1.47c-4.44,1.81-8.28,5.51-9.45,10.17
		c-0.4,1.61-0.52,3.36-1.5,4.69c-0.93,1.26-2.46,1.9-3.88,2.55c-21.87,10.08-34.16,29.87-45.58,54.74c-2.75,6-6.87,4.19-14.65,12.93
		c-3.6,4.04-5.36,10.01-9.1,13.82c-15.35,15.64-30.71,31.27-46.06,46.91c7.94,3.52,17.01-0.6,24.7-4.65
		c11.98-6.31,23.96-12.62,35.95-18.93c3.82-2.01,7.74-4.1,10.5-7.43c2.29-2.76,3.62-6.19,5.71-9.1c5.68-7.89,15.9-10.77,23.85-16.35
		c9.63-6.76,16.23-17.73,26.98-22.5c8.82-3.91,19.87-3.37,26.81-10.08c3.99-3.86,5.78-9.42,8.7-14.15
		c2.92-4.73,8.16-9.02,13.54-7.65c1.22,0.25,2.32-0.73,2.26-1.98c-0.05-1.1-0.26-2.19-0.58-3.25c-1.51-4.97-2.47-10.09-2.82-15.27
		l-0.77-11.22c-0.42-6.1-0.01-13.7,5.54-16.25c2.12-0.97,4.73-1.01,6.42-2.61c2.96-2.81,0.91-7.67,0.96-11.75
		c0.08-6.77,6.29-11.64,11.89-15.44c10.35-7.02,20.7-14.03,31.04-21.05c2.33-1.58,4.7-3.21,6.32-5.51c1.75-2.49,2.46-5.54,3.07-8.52
		C297.65,409.02,298.76,384.27,296.02,359.94"/>
	<path class="st4" d="M590.64,119.78c24.26-5.74,48.53-12.5,73.07-16.9c22.06-3.95,46.06-3.26,62.6,13.88
		c13.49,13.98,19.38,34.43,17.87,53.56c-1.81,22.83-12.97,43.98-27.05,61.61c-14.56,18.22-32.5,33.31-49.7,48.92
		c-15.34,13.92-31.69,28.8-39.28,48.62c-6.96,18.17-5.19,39.56,9.64,53.27c14.73,13.62,37.42,19.69,56.98,20.86
		c19.99,1.19,40.19-4.23,55.05-18.07c12.53-11.67,22.92-32.07,16.16-49.29c-5.7-14.52-22.96-21.91-37.75-19.15
		c-18.77,3.5-32.58,19.97-39.94,36.64c-15.72,35.58-7.17,79.48,19.86,107.17c13.38,13.72,30.68,23.49,49.19,28.33
		c8.84,2.31,18,3.51,27.14,3.49c11.55-0.03,22.98-2.33,34.54-2.1c11.53,0.23,22.23,3.74,30.62,11.81
		c7.28,7.01,12.26,16.21,15.22,25.81c7.4,24.01,1.25,48.46-0.14,72.78c-0.58,10.14,2.21,18.72,10.09,25.42
		c6.58,5.6,14.94,8.78,23.53,9.43c8.84,0.67,17.91-1.46,25.37-6.29c6.61-4.28,13.84-9.55,17.84-16.49
		c3.74-6.47,3.37-13.68,1.2-20.62c-0.47-1.52-2.86-0.87-2.38,0.66c2.78,8.9,1.68,16.9-4.83,23.79
		c-5.97,6.32-14.03,12.29-22.39,14.86c-18.91,5.82-45.53-4.09-46.06-26.54c-0.27-11.63,2.34-23.44,3.25-35.03
		c0.87-11.08,1.03-22.3-0.87-33.29c-2.83-16.35-11.15-33.1-25.57-42.12c-18.12-11.33-39.57-4.62-59.41-4.56
		c-19.11,0.05-38.18-5.35-54.52-15.24c-33.75-20.42-52.24-59.75-45.75-98.85c3.15-18.96,12.39-38.42,28.48-49.68
		c14.85-10.39,37.26-10.52,48.36,5.65c11.61,16.92-0.5,40.46-13.83,52.42c-15.85,14.23-37.5,18.5-58.22,16.04
		c-19.63-2.33-44.09-9.56-55.72-26.87c-12.19-18.13-6.1-41.87,5.34-58.66c12.11-17.77,29.63-31.56,45.44-45.86
		c15.4-13.93,30.56-28.41,42.32-45.65c20.38-29.87,29.92-70.91,6.97-102.27c-10.66-14.57-26.74-22.21-44.63-22.98
		c-21.66-0.93-43.33,5.95-64.19,10.89c-11.51,2.72-23.03,5.45-34.54,8.17C588.43,117.76,589.09,120.15,590.64,119.78"/>
	<g>
		<path class="st2" d="M970.99,257.04c-1.12-0.22-1.85-1.31-1.62-2.44c0.22-1.12,1.31-1.85,2.43-1.62c1.12,0.22,1.85,1.31,1.62,2.44
			C973.2,256.53,972.11,257.26,970.99,257.04"/>
		<path class="st2" d="M141.77,371.24c-1.12-0.22-1.85-1.31-1.62-2.44c0.22-1.12,1.31-1.85,2.43-1.62c1.12,0.22,1.85,1.31,1.62,2.44
			C143.98,370.73,142.89,371.46,141.77,371.24"/>
		<path class="st2" d="M11.43,896.43c-1.12-0.22-1.85-1.31-1.62-2.44c0.22-1.12,1.31-1.85,2.43-1.62c1.12,0.22,1.85,1.31,1.62,2.44
			C13.64,895.93,12.55,896.66,11.43,896.43"/>
		<path class="st2" d="M695.79,785.79c-1.12-0.22-1.85-1.31-1.62-2.43c0.22-1.12,1.31-1.85,2.43-1.62c1.12,0.22,1.85,1.31,1.62,2.44
			C698,785.29,696.91,786.01,695.79,785.79"/>
		<path class="st2" d="M474.34,765.41c-1.12-0.22-1.85-1.31-1.62-2.44c0.22-1.12,1.31-1.85,2.43-1.62c1.12,0.22,1.85,1.31,1.62,2.44
			C476.55,764.91,475.46,765.64,474.34,765.41"/>
		<path class="st2" d="M786.34,632.7c0,1.14-0.93,2.07-2.07,2.07c-1.14,0-2.07-0.93-2.07-2.07s0.93-2.07,2.07-2.07
			C785.41,630.63,786.34,631.56,786.34,632.7"/>
	</g>
	<path class="st1" d="M1229.11,682.63c32.86,81.66,71.71,165.2,143.1,220.32c31.74,24.5,69.06,42.43,109.05,47.69
		c37.58,4.94,77.11-1.58,110.46-19.86c16.23-8.9,31.06-20.78,42.78-35.15c12.85-15.75,22.13-33.83,28.91-52.94
		c13.85-39.11,17.23-80.87,25.79-121.25c7.27-34.3,21.03-69.06,45.14-95.09c10.98-11.85,24.31-21.85,39.74-27.01
		c16.87-5.64,34.9-5.37,51.75,0.2c37.06,12.24,64.15,45.6,84.37,77.39c21.22,33.36,39.92,69.77,69.65,96.6
		c7.15,6.45,16.4,12.54,24.66,17.5v-13.75c-34.06-20.46-50.52-52.39-70.74-85.45c-20.68-33.81-42.71-67.82-76.37-90.14
		c-15.9-10.54-34.17-17.58-53.33-18.6c-17.36-0.92-34.76,3.39-49.91,11.85c-30.52,17.04-50.61,48.4-63.56,79.99
		c-14.92,36.38-18.57,75.81-25.94,114.12c-7.47,38.82-18.86,78.82-47.49,107.62c-26,26.16-62.43,40.36-98.87,42.93
		c-38.88,2.74-76.98-7.95-110.54-27.35c-76.19-44.03-120.63-123.4-154.14-201.93c-4.38-10.26-8.59-20.58-12.76-30.93
		c-1.22-3.04-4.07-5.22-7.5-4.26C1230.48,675.93,1227.87,679.54,1229.11,682.63"/>
	<path class="st4" d="M553.99,130.99c0,0,5.83,8.15,12.21,10.74c6.37,2.59,17.13,0.59,17.53,6.98c0.4,6.38-3.98,14.89-3.59,18.61
		c0.25,2.3,0.8,7.76,1.18,11.59c0.27,2.71,1.09,5.33,2.42,7.71l1.98,3.57c0,0-6.31-7.07-15.51-8.72l-0.02-9.47
		c0,0-4.48-12.93-4.54-16.71l-1.9-4.99c0,0-21.34-13.54-21.08-17.58L553.99,130.99z"/>
	<path class="st3" d="M226.33,691.57c0,0,10.88,24.77,51.82,53.2c0,0-13.6,12.54-11.22,27.91c2.38,15.36,16.87,47.38,16.87,47.38
		l-37.56,40.36l-38.29-26.09l-19.96-43.21l-18.74-31.8v-39.14L226.33,691.57z"/>
	<path class="st1" d="M247.6,767.03c-1.01-2.09-0.34-4.62,1.58-5.93c7.85-5.37,4.19-13.95,4.19-13.95c-5.07-11.35,0-22.13,0-22.13
		l-27.05-33.45c-5.62,2.8-5.03,7.07-5.03,7.07s-5.08,1.54-17.93,5.15c-12.85,3.61-27.96,16.91-27.96,16.91
		c31.01,3.41,49.12,27.22,57.14,41.06c3.02,5.21,6.4,10.21,10.33,14.77c14.31,16.63,26.68,58.84,26.68,58.84
		C270.49,816.41,253.52,779.32,247.6,767.03"/>
	<path class="st5" d="M192.24,509.41c0,0,4.13,0.69,5.02-4.17c0.89-4.86,0.02-1.32,0.02-1.32l-0.08-3.97l2.45,4.07
		c0,0,5.36,15.98,17.64,28.14c1,0.99-0.16,2.6-1.41,1.96C207.91,530.06,195.99,522.07,192.24,509.41"/>
	<path class="st5" d="M173.44,521.05c0,0,2.72,7.38,1.95,16.12c0,0-3.26-0.27-7.33-8.88C168.06,528.3,173.07,526.51,173.44,521.05"
		/>
	<path class="st5" d="M348.91,578.03c0,0,7.27,5.94,20.27,9.39c1.14,0.3,0.88,1.99-0.29,1.94c-7.03-0.32-17.34-2.07-26.58-8.54
		L348.91,578.03z"/>
	<path class="st5" d="M367.27,556.17l8.93,2.27c1.44,0.37,2.7-1.06,2.14-2.44c-1.23-3-3.72-7.47-8.43-10.74L367.27,556.17z"/>
	<path class="st3" d="M270.01,657.44c0,0,16.15,37.83,53.55,55.96l9.19-5.13c0,0-43.67-21.82-55.24-57.28L270.01,657.44z"/>
	<path class="st1" d="M277.51,650.99c0,0-4.8,3.39-7.51,7.03c0,0,9.55,17.83,14.21,22.52c0,0,5.81-3.62,8.1-4.08
		C292.31,676.45,282.37,666.3,277.51,650.99"/>
	<path class="st3" d="M288.37,635.24c0,0,24.22,54.86,69.22,69.48c0,0,6.15,0.57,12.33-6.59c0,0-37.75-1.92-76-74.16L288.37,635.24z
		"/>
	<path class="st1" d="M317.3,660.42c0,0-19.81-28.45-23.38-36.46c0,0-5.13,8-5.55,11.28c0,0,11.38,23.46,20.82,33.24
		C309.19,668.48,316.08,663.01,317.3,660.42"/>
	<path class="st4" d="M495.09,4.72c-47.15-15.64-73.21,12.55-73.21,12.55c-35.99,30.06-22.06,72.58-22.06,72.58
		c-2.6,9.47-1.61,14.4,0.35,16.95l-31.73-9.65c-10.07-0.51-10.02,5.07-10.02,5.07l-82.77,241.8c-1.26,3.68,2.41,4.96,2.41,4.96
		l17.97,10.94c0,0,16.56-34.75,16.56-48.23c0-13.49,11.23-41.59,12.47-64.03c1.24-22.44,27.96-42.75,31.06-57.5
		c3.1-14.75,17.11-30.21,30.59-38.19c13.48-7.98,29.2-4.38,46.33-8.74c11.6-2.95,43.56,2.09,62.97,5.65
		c1.65,0.3,2.31-2.05,0.74-2.65l-38.43-15.22c0.69,0.09-0.7-0.07,0,0c3.54,0.38,7.47,0.52,10.26-1.69c2.28-1.8,3.28-4.82,3.51-7.72
		c0.69-8.89-4.6-16.98-8.78-24.85c-4.19-7.88-7.36-17.78-2.71-25.39c3.81-6.23,11.48-8.64,17.61-12.61
		c7.71-4.97,12.99-13.13,15.16-22.03c1.96-8.07,11.05-13.32,18.98-10.9c6.87,2.09,30.39,13.18,34.16,71.35
		C546.5,97.19,553.48,28.35,495.09,4.72"/>
	<path class="st3" d="M286.18,354.28l131.92,56.08c2.24,0.95,1.89,4.21-0.49,4.69c-5.2,1.03-12.78,2.9-22.77,6.3
		c-26.98,9.19-18.35-21.28-38.97-17.05c-20.61,4.23-33.28,12.16-37.34-1.08c-4.06-13.24-13.49-22.98-18.28-23.06
		C295.46,380.09,286.18,354.28,286.18,354.28"/>
	<path class="st3" d="M527.65,228.13c-2.24-4.69,7.69-3.95,7.6-22.56c-0.08-16.32-2.76-19.87-6.66-22.02
		c-3.82-2.11-8.63-0.88-11.01,2.78c-11.1,17.05-16.32,34.51-23.42,54.49c-20.38,57.38-40.75,114.76-61.13,172.14
		c23.31,3.14,45.38,14.77,61.15,32.23c11.79-56.48,23.59-112.95,35.38-169.43"/>
	<path class="st3" d="M445.87,394.79l-11.75,16.49c-1.76,2.47-4.97,3.42-7.79,2.32l-8.23-3.23l-23.26,10.99
		c12.59-3.65,27.84-0.42,38.17,7.65c5.25,4.09,9.55,9.47,15.41,12.62c8.23,4.42,18.14,3.79,27.45,3.04
		c5.76-0.46,12.12-1.17,14.59-8.09c0.76-2.13,0.91-4.44,0.58-6.67c-1.96-13.31-15.96-19.95-28.22-24.66
		c-5.64-2.17-11.29-4.34-16.93-6.5"/>
	<defs>
		<filter id="Adobe_OpacityMaskFilter" filterUnits="userSpaceOnUse" x="-1.63" y="634.77" width="107.01" height="117.3">
			<feColorMatrix  type="matrix" values="1 0 0 0 0  0 1 0 0 0  0 0 1 0 0  0 0 0 1 0"/>
		</filter>
	</defs>
	<mask maskUnits="userSpaceOnUse" x="-1.63" y="634.77" width="107.01" height="117.3" id="b_2_">
		<path class="st6" d="M-1.63-0.76h107.01v117.3H-1.63V-0.76z"/>
	</mask>
	<path class="st7" d="M72.88,634.77c0,0,8.77,25.4,32.5,36.72l-22.42,80.58H31.26l-32.9-69.88l21.79-26.32L72.88,634.77z"/>
	<path class="st1" d="M76.72,676.71c-0.33-1.2,0.27-2.47,1.42-2.98c4.67-2.06,3.58-6.96,3.58-6.96c-5.75-8.76-0.12-15.91-0.12-15.91
		l-8.72-16.09c-3.24,0.93-3.35,3.24-3.35,3.24s-2.83,0.31-9.97,0.96c-7.14,0.65-16.42,6.19-16.42,6.19
		c16.04,4.85,23.27,19.19,26.15,27.29c1.08,3.05,2.22,6.12,4.01,8.81c10.76,16.19,7.21,57.28,7.21,57.28
		C89.55,709.08,78.64,683.78,76.72,676.71"/>
	<path class="st1" d="M107.83,595.96c0,0,6.97,24.96,38.91,44.17l6.59-3.82c0,0-31.12-18.06-41.03-44.66
		C112.31,591.65,110.19,592.72,107.83,595.96"/>
	<path class="st1" d="M118.9,586c0,0,10.01,26.81,41.96,46.02l5.77-3.25c0,0-33.34-20.48-43.26-47.07
		C123.38,581.69,121.26,582.76,118.9,586"/>
	<path class="st3" d="M125.45,623.38c0,0,11.1,11.46,21.29,16.75l6.59-3.82c0,0-16.08-10.71-24.13-19.28L125.45,623.38z"/>
	<path class="st3" d="M135.24,610.95c0,0,12.21,15.11,25.63,21.07l5.77-3.25c0,0-17.12-10.78-25.96-21.27L135.24,610.95z"/>
	<path class="st3" d="M911.85,912.38c0,0,5.24,8.22,31.2,15.76c0,0-0.38,4.33-2.52,8.95l4.84,27.94L935.07,1000l-35.21-6.23
		l-3.25-5.15l-35.75-0.27l-42.79-16.81l4.55-9.55l13.32-11.06l59.59-15.99L911.85,912.38z"/>
	<path class="st1" d="M899.02,986.21h6.11l4.27,6.82l-6-0.98L899.02,986.21z"/>
	<path class="st1" d="M923.07,920.53l-11.23-8.15l-15.72,24.63c-8.97,12.87-14.41,12.37-14.41,12.37
		c-15.21,6.29-40.11,6.31-40.11,6.31c-8.43-0.97-12,0.97-12,0.97l-2.98,2.54l-1.31,2.15c-1.03,0.24-1.25,1.61-0.34,2.15
		c4.75,2.81,16.95,8.9,38.98,13.06c0.35,0.07,0.49-0.43,0.16-0.55c0,0-15.34-3.81-17.41-6.64c-0.72-0.98,1.46-0.28,2.66-0.13
		c8.06,1.04,13.48-0.64,21.51-1.85c7.13-1.07,14.27-2.14,21.4-3.22c3.01-0.45,6.25-1.01,8.4-3.17c1.78-1.78,2.5-4.34,3.71-6.56
		c3.36-6.18,10.5-9.65,13.64-15.94C921,932.55,918.44,927.68,923.07,920.53"/>
	<path class="st5" d="M932.71,773.53c0,0,12.67,6.08,19.93,11.37c0.82,0.6,0.05,1.87-0.86,1.43c-5.44-2.65-13.82-6.36-18.98-6.84
		L932.71,773.53z"/>
	<path class="st5" d="M949.71,756.44l12,6.14c0.83,0.42,1.71-0.45,1.3-1.28c-1.34-2.73-3.82-6.63-6.88-5.99
		C951.5,756.26,949.71,756.44,949.71,756.44"/>
	<path class="st1" d="M911.01,874.03c0,0,20.63,20.09,50.18,24.82l3.62-4.44c0,0-33.5-6.94-53.33-26.14
		C911.49,868.26,910.62,872.4,911.01,874.03"/>
	<path class="st3" d="M941.28,893.13c0,0,12.45,4.69,19.91,5.71l3.62-4.44c0,0-8.43-1.12-22.93-7.34
		C941.89,887.07,942.23,890.22,941.28,893.13"/>
	<path class="st1" d="M912.71,860.04c0,0,25.84,20.77,60.07,26.08l3.64-4.98c0,0-31.86-3.64-63.19-26.98L912.71,860.04z"/>
	<path class="st3" d="M939.85,869.9c0,0-0.63,4.14-0.37,5.98c0,0,20.82,9.21,33.31,10.24c0,0,2.33-2.53,3.64-4.98
		C976.42,881.14,950.8,876.63,939.85,869.9"/>
	<path class="st5" d="M1286.82,529.54c0,0,4.94,0.81,8.27,2.69c0.73,0.41,0.48,1.53-0.36,1.59c-2.01,0.16-4.75,0.56-5.92,1.6
		C1288.8,535.42,1288.56,532.15,1286.82,529.54"/>
	<path class="st2" d="M1302.64,537.34c0-5.38,1.54-3.65,0.98-10.96c-0.56-7.31-4.63-6.92-4.63-11.92c0-5,1.35-4.04,1.54-9.04
		c0.19-5-6.34-6.54-1.35-14.62c2.34-3.78,3.46-6.93,3.98-9.21c0.47-2.04-0.97-4-3.05-4.23c-7.12-0.79-10.58-4.03-13.3-4.52
		c-3.14-0.57-6.86-7.14-9.71-11.15c-2.86-4-6.57-6-8.57-12.57c-2-6.57-3.33-9.17-3.33-9.17c-7.17-4.91-13.16,2.67-9.57,4.63
		c3.59,1.96,11.67,14.75,11.67,14.75c2.86,9.99,14.43,19.26,14.43,19.26c0.09,0.02,0.18,0.04,0.28,0.06
		c-0.18-0.04-0.28-0.06-0.28-0.06c0.89,1.69,0.24,3.9-0.3,6.32c-0.54,2.41,0.11,5.58,0.46,7.51c0.35,1.94-0.21,8.29-0.21,8.29
		c-1.18,5.2,1.49,5.6,2.72,6.98c1.22,1.39-1.62,4.87-1.62,4.87c-2.46,12.74,2.11,16.09,4.03,16.98c1.92,0.89,1.98,5.88,1.98,5.88
		c-6.23,2.89,0,14.73,0,14.73c-1.82-1.25-3.02-0.52-3.02-0.52c-1.71,2.66-4.72,2.52-4.72,2.52c-6.21,0.2-15.79,4.06-15.79,4.06
		c-1.05,5.41-6.63,9.68-6.63,9.68s8.26-3.93,12.87-4.32c4.61-0.38,11.72-5.19,16.14-5.36c4.42-0.17,6.92-0.41,9.22-3.49
		c2.31-3.08,1.54-3.08,5.57-4.04C1306.49,547.73,1302.64,542.72,1302.64,537.34"/>
	<path class="st5" d="M1281.74,478.58c0,0,7.36,2.67,14.53,2.97c0.41,0.02,0.47,0.61,0.07,0.7c-3.16,0.76-8.84,1.72-14.44,0.59
		C1281.89,482.84,1282.11,481.12,1281.74,478.58"/>
	<path class="st5" d="M1088.54,707.82c0,0,12.3,6.03,18.54,8.41c0.52,0.2,0.36,0.96-0.19,0.95c-4.9-0.16-14.47-1.13-22.85-5.78
		L1088.54,707.82z"/>
	<path class="st5" d="M1113.47,589.06c0,0,8.18,3.04,19.7,3.32c1.26,0.03,1.34,1.87,0.09,2.01c-5.87,0.68-12.78,0.59-18.89-1.83
		C1114.37,592.56,1113.17,590.38,1113.47,589.06"/>
	<path class="st3" d="M1196.19,580.61c0,0,87.74-10,69.08-24.4l-11.23,2.93l-4.19,0.2c-1.29,0.06-2.56,0.27-3.8,0.62l-16.93,4.76
		C1229.13,564.72,1212.53,575.25,1196.19,580.61"/>
	<defs>
		<filter id="Adobe_OpacityMaskFilter_1_" filterUnits="userSpaceOnUse" x="1102.13" y="504.98" width="88.89" height="43.18">
			<feColorMatrix  type="matrix" values="1 0 0 0 0  0 1 0 0 0  0 0 1 0 0  0 0 0 1 0"/>
		</filter>
	</defs>
	<mask maskUnits="userSpaceOnUse" x="1102.13" y="504.98" width="88.89" height="43.18" id="c_2_">
		<path class="st8" d="M6.5-0.39L3.33,9.75C3.91,7.24,5.99,5.4,7.96,3.74c2.75-2.32,6.08-4.79,9.58-3.96
			c3.19,0.75,5.09,3.93,6.81,6.73c3.09,5.01,7.64,10.1,13.52,10.09c4.08-0.01,7.72-2.53,10.67-5.36c2.95-2.83,5.55-6.1,9.02-8.23
			c1.31-0.81,2.79-1.45,4.33-1.45c3.54,0,6.12,3.23,8.13,6.14c2.39,3.45,4.78,6.9,7.17,10.36c1.28,1.85,2.6,3.74,4.41,5.09
			c1.81,1.35,4.23,2.08,6.35,1.34c-5.45,3.03-11.89,6.15-17.63,3.72c-3.89-1.65-7.62-5.75-11.5-4.07c-1.31,0.57-2.27,1.72-3.19,2.82
			c-4.27,5.09-9.05,9.84-14.7,13.33c-2.32,1.43-4.93,2.68-7.65,2.52c-3.71-0.22-6.71-2.95-9.39-5.53c-2.2-2.12-4.4-4.23-6.59-6.35
			c-1.11-1.07-2.33-2.2-3.86-2.42c-2.1-0.3-3.99,1.17-5.6,2.56c-2.75,2.37-7.83,10.72-8.24,7.11"/>
	</mask>
	
		<linearGradient id="SVGID_1_" gradientUnits="userSpaceOnUse" x1="-480.5192" y1="992.6376" x2="-482.11" y2="993.1385" gradientTransform="matrix(54.6742 0 0 -26.5621 27462.3535 26900.791)">
		<stop  offset="0" style="stop-color:#1C2F57"/>
		<stop  offset="1" style="stop-color:#000000"/>
	</linearGradient>
	<path class="st9" d="M1109.58,504.98c0,0-9.78,13.35-6.92,38.54c0.41,3.61,5.49-4.74,8.24-7.11c1.61-1.39,3.5-2.86,5.6-2.56
		c1.53,0.22,2.75,1.35,3.86,2.42c2.2,2.12,4.39,4.23,6.59,6.35c2.67,2.58,5.68,5.3,9.39,5.53c2.72,0.17,5.33-1.08,7.65-2.52
		c5.65-3.49,10.43-8.24,14.7-13.33c0.92-1.1,1.87-2.25,3.19-2.82c3.88-1.68,7.61,2.42,11.5,4.07c5.74,2.43,12.19-0.68,17.63-3.72
		c-2.13,0.74-4.55,0.01-6.35-1.34s-3.12-3.23-4.41-5.09c-2.39-3.45-4.78-6.9-7.17-10.36c-2.02-2.91-4.59-6.13-8.13-6.14
		c-1.54,0-3.01,0.64-4.33,1.45c-3.48,2.14-6.08,5.41-9.02,8.23c-2.95,2.83-6.59,5.36-10.67,5.36c-5.88,0.01-10.43-5.08-13.52-10.09
		c-1.73-2.79-3.62-5.97-6.81-6.73c-3.5-0.82-6.83,1.65-9.58,3.96c-1.97,1.66-4.05,3.5-4.63,6.01"/>
	<path class="st3" d="M1130.21,808.83c1.67-6.96,3.35-14.08,2.66-21.2c-0.7-7.12-4.23-14.38-10.6-17.64
		c-13.19-6.75-28.2,6.4-43.01,6.02c-7.58-0.2-17.36-3.05-21.15,3.53c-1.06,1.83-1.3,4.08-2.51,5.81c-3.3,4.71-12.07,3.63-14.15,8.99
		c-0.52,1.33-0.47,2.82-0.87,4.2c-1.25,4.28-28.46,12.47-32.48,14.39c-15.82,7.57,1.21,18-17.75,34.31
		c-4.31,3.71,2.34,10.53,5.15,15.48c2.43,4.28,7.87,5.68,12.75,6.29c24.9,3.07,49.9-4.02,73.43-12.73
		c8.59-3.18,17.23-6.66,24.4-12.37c10.67-8.51,17.09-21.13,23.18-33.35"/>
	<path class="st3" d="M1124.12,807.33c0,0,6.07-35.64-10.85-36.23c-16.91-0.59,3.54,38.46,3.54,38.46L1124.12,807.33z"/>
	<path class="st3" d="M1135.49,892.54c0,0,13.76,9.06,38.49,5.25l-2.33,22.76c0,0,15.44,55.7,2.33,69.07
		c-21.49,21.91-49.95-10.5-49.95-10.5l-3.61-8.36c0,0-21.4-12.01-21.4-20.89c0-8.88,7.01-37.49,7.01-37.49l20.66-9.52
		L1135.49,892.54z"/>
	<path class="st1" d="M1161.97,898.97c0,0-1.12,6.51-4.98,11.38c-3.86,4.88-2.64,8.34-3.05,11.18c-0.41,2.85-3.91,14.7-3.91,14.7
		s-10.89-13.33-28.93-25.11c0,0,15.45,6.43,14.39-18.6C1135.49,892.54,1147.97,895.63,1161.97,898.97"/>
	<path class="st1" d="M1134.61,967.83h27.89l1.01,5.41c0,0-21.68,1.93-30.65,0.46L1134.61,967.83z"/>
	<path class="st1" d="M1139.14,925.16c0,0-14.52-22.92-36.71-20.94c-22.19,1.97-4.97,37.52-4.97,37.52
		S1075.08,878.01,1139.14,925.16"/>
	<path class="st2" d="M1161.97,898.97c4.93-12.4-11.55-23.09-11.74-36.44c-0.08-6.04,3.92-15.25,5.36-21.11
		c2.89-11.73-4.57-20.16-7.51-31.88c-2.15-8.56,4.08-11.02,3.93-15c-0.14-3.69-4.65-8.13-1.79-17.89
		c4.08-13.92,9.23-26.92,21.45-34.71c5.14-3.28,14.2-2.98,21.41-4.49c3.56-0.75,3.68-5.79,0.14-6.68
		c-8.72-2.18-17.66-3.48-26.64-3.86c-2.67-0.11-5.42-0.13-7.89,0.87c-3.13,1.27-5.4,3.98-7.54,6.59
		c-7.98,9.75-15.96,19.5-23.94,29.26c-3.14,3.83-6.43,8.1-6.41,13.06c0.02,4.82,3.21,9.05,4.14,13.78c1.6,8.15-3.66,16.3-2.92,24.57
		c0.33,3.62,1.78,7.03,2.49,10.59c0.87,4.37,0.6,8.88,0.54,13.34c-0.25,18.68,3.32,37.41,10.45,54.68"/>
	<path class="st2" d="M1164.03,726.79c-11.44-0.04-22.85,4.01-31.7,11.26c-2.06,1.68-3.99,3.54-5.57,5.67
		c-6.65,8.95-6.31,21.12-5.67,32.26c7.26,0.54,13.56-5.14,17.37-11.35c3.81-6.2,6.18-13.33,10.88-18.9
		c4.72-5.6,11.77-9.63,14.09-16.58"/>
	<path class="st5" d="M1123.38,785.66c0,0,7.98,7.78,15.14,10.93c1.21,0.53,1,2.31-0.29,2.58c-3.27,0.68-8.25,0.92-14.21-1.38
		C1124.03,797.78,1125.95,794.61,1123.38,785.66"/>
	<path class="st3" d="M1283.94,613.87c-22.49,5.13-35.92,11.99-52.64,20.82c-3.63,1.92-7.74,4.84-7.37,8.93
		c0.62,6.88,12.63,7.6,13.67,14.43c0.35,2.28-0.73,4.5-1.76,6.56c-6.83,13.67-12.84,28.06-14.37,43.27
		c-1.52,15.16,1.38,30.98,1.77,46.2c-2.27,3.98-5.5,7.49-8.96,10.55c-5.26,4.65-11.17,8.54-16.22,13.42
		c-3.14,3.04-6.01,8-3.33,11.45c2.39,3.07,8.22,3.26,8.71,7.12c0.13,1.03-0.22,2.08-0.72,2.99c-2,3.67-6.3,5.88-7.63,9.85
		c-2.02,6.05,3.82,11.63,8.99,15.36c0.85,0.62,1.86,1.26,2.88,1.02c0.68-0.16,1.21-0.69,1.69-1.21c0.25-0.26,0.49-0.54,0.73-0.8
		c1.01,1.19,2.24,2.2,3.72,2.92c6.07,2.97,13.74-0.11,18-5.37c4.26-5.26,5.85-12.13,7.04-18.79c7.31-40.92,4.01-83.67,16.17-123.42
		c5.3-17.32,13.57-34.52,12.07-52.57L1283.94,613.87z"/>
	<path class="st3" d="M1125.14,845.66c0,0,14.18,14.8,71.05,8.5l-1.28,8.36c0,0-50.1,5.71-69.77-9.04V845.66z"/>
	<path class="st3" d="M1123.4,827.7c0,0,15.39,14.8,77.14,8.5l-1.39,8.36c0,0-54.4,5.71-75.75-9.04V827.7z"/>
	<path class="st1" d="M1156.39,837.02c-18.99-1.67-27.95-6.11-31.25-8.24c0.23,2.56,0.18,5.16,0.13,7.75
		c7.56,4.51,18.45,6.89,29.56,8.05c0.36-1.15,0.68-2.25,0.93-3.24C1156.13,839.85,1156.32,838.41,1156.39,837.02"/>
	<path class="st1" d="M1125.14,845.66c0.1,2.74,0.28,5.48,0.54,8.21c6.18,4.4,15.13,6.91,24.56,8.28c0.03-2.21,0.56-4.81,1.3-7.51
		C1131.4,852.05,1125.23,845.75,1125.14,845.66"/>
	<path class="st3" d="M1051.04,615.43c0,0,12.12,12.88,7.59,54.53l6.72-1.54c0,0,2.85-37.81-7.42-54.27L1051.04,615.43z"/>
	<path class="st3" d="M1063.75,610.31c0,0,10.42,13.69,7.87,56.64l6.6-1.58c0,0,2.7-38.45-7.58-56.46L1063.75,610.31z"/>
	<path class="st3" d="M1285.46,616.6c0,0-13.91-14.62-15.47-66.98l-6.45,2.71c0,0,2.67,47.39,15.27,66.67L1285.46,616.6z"/>
	<path class="st3" d="M1273.58,624.46c0,0-12.35-15.83-16.06-69.56l-6.32,2.74c0,0,2.92,48.16,15.74,69.37L1273.58,624.46z"/>
	<path class="st1" d="M1064.17,610.82c1.03,1.68,3.68,6.74,5.61,16.7c2.09-0.82,4.24-1.47,6.43-1.94
		c-1.18-6.22-2.93-12.09-5.51-16.67C1068.85,609.37,1066.45,610.02,1064.17,610.82"/>
	<path class="st1" d="M1051.18,615.59c0.79,0.94,4.72,6.14,6.93,18.26c1.39-0.39,2.59-1.27,3.8-2.08c0.57-0.38,1.15-0.74,1.73-1.09
		c-1.18-6.28-2.98-12.17-5.71-16.54C1057.93,614.15,1056.53,615.08,1051.18,615.59"/>
	<path class="st3" d="M290.41,156.57c0,0-11.67,33.15,7.08,70.87l5.99-2.56c0,0-16.98-36.11-5.79-72.88L290.41,156.57z"/>
	<path class="st3" d="M305.9,149.18c0,0-12.51,35.65,6.24,73.37l5.99-2.56c0,0-16.98-36.11-5.79-72.88L305.9,149.18z"/>
	<path class="st1" d="M305.82,149.4c-0.57,1.73-4.33,13.78-3.99,30.57c2.51-2.88,4.77-5.99,6.74-9.27
		c0.22-7.29,1.25-14.95,3.49-22.64c-0.16,0.07-0.33,0.14-0.49,0.21C309.86,148.99,307.84,149.19,305.82,149.4"/>
	<path class="st1" d="M287.06,189.31c1,0.35,2.12,0.43,3.37,0.15c1.2-0.27,2.3-0.86,3.25-1.64c0.18-0.15,0.36-0.31,0.54-0.45
		c-0.88-10.83-0.29-23.07,3.46-35.38c-2.41,1.54-4.43,3.36-7.28,4.57C290.4,156.56,285.7,169.91,287.06,189.31"/>
	<path class="st3" d="M560.44,170.15c0,0,13.26,15.82-1.2,66.64l8.29-2.57c0,0,10.27-41.07,0.7-58.21
		C568.24,176.01,564.9,170.1,560.44,170.15"/>
	<path class="st3" d="M575.97,183.63c0,0,13.26,15.82-1.2,66.64l8.23,1.82c0,0,10.34-46.63,0.77-63.77
		C583.78,188.33,580.61,185.24,575.97,183.63"/>
	<path class="st2" d="M951.16,551.77c1.58,1.02,3.35,2.99,2.19,4.46c-0.34,0.43-0.85,0.66-1.35,0.89c-1.9,0.86-3.91,1.94-4.73,3.86
		c-1.19,2.78,0.62,6.19-0.6,8.96c-0.66,1.49-2.13,2.57-2.58,4.13c-0.29,1.01-0.13,2.11-0.47,3.1c-0.53,1.51-2.14,2.4-3.72,2.66
		c-1.58,0.26-3.19,0.02-4.79,0.02c-5.45-0.01-9.84,2.73-12.79,7.32c-2.03-5.8-2.69-13.85,0.38-19.96c1.84-3.66,4.98-6.66,6.19-10.58
		c0.53-1.74,0.7-3.68,1.86-5.08c0.77-0.93,1.9-1.49,3.02-1.93C939.38,547.43,945.82,548.97,951.16,551.77"/>
	<path class="st4" d="M942.13,583.15c0,0-1.65,1.75-0.42,3.05c0,0-12.04-2.3-13.56,3.1c0,0,0.66-2.81,0.79-3.07
		C929.08,585.96,931.26,581.29,942.13,583.15"/>
	<path class="st4" d="M953.18,550.17c0,0-1.32,1.3-0.56,2.2c0,0-8.11-5.05-16.92-3.35C935.7,549.02,942.88,545.63,953.18,550.17"/>
	<path class="st5" d="M1117.31,579.93c0,0,8.98,1.88,21.22,1.36c0.8-0.03,0.94,1.12,0.16,1.27c-6.52,1.29-15.94,2.41-23.83,0.39
		L1117.31,579.93z"/>
	<path class="st3" d="M1273.58,646.22l-49.66-2.6l11.91,20.99h26.55L1273.58,646.22z"/>
	<path class="st2" d="M18.56,907.13c-1.12-0.22-1.85-1.31-1.62-2.44c0.22-1.12,1.31-1.85,2.43-1.62c1.12,0.22,1.85,1.31,1.62,2.44
		C20.77,906.63,19.68,907.35,18.56,907.13"/>
</g>
</svg>
