<svg id="Layer_1" data-name="Layer 1" xmlns="http://www.w3.org/2000/svg" xmlns:xlink="http://www.w3.org/1999/xlink" viewBox="0 0 3000 1000"><defs><style>.cls-1{fill:#fff;}.cls-1,.cls-2,.cls-3,.cls-4,.cls-5,.cls-6,.cls-9{fill-rule:evenodd;}.cls-2{fill:#ff5050;}.cls-3{fill:#384a66;}.cls-4{fill:#030c1a;}.cls-5{fill:#fffbfc;}.cls-6{fill:#759097;}.cls-7{mask:url(#mask);}.cls-8{mask:url(#mask-2);}.cls-9{fill:url(#linear-gradient);}</style><mask id="mask" x="496.93" y="-1.12" width="107.01" height="752.84" maskUnits="userSpaceOnUse"><g id="b"><path class="cls-1" d="M496.93-1.12h107v117.3h-107Z"/></g></mask><mask id="mask-2" x="993.1" y="-17.39" width="1191.44" height="548.55" maskUnits="userSpaceOnUse"><g id="c"><path class="cls-1" d="M1000-17.39,996.84-7.25c.58-2.51,2.66-4.35,4.63-6,2.75-2.31,6.08-4.78,9.58-4,3.19.75,5.08,3.93,6.81,6.73,3.09,5,7.64,10.1,13.52,10.09,4.08,0,7.73-2.54,10.67-5.37s5.55-6.09,9-8.23a8.45,8.45,0,0,1,4.33-1.45c3.54,0,6.12,3.22,8.13,6.14L1070.7,1a20.72,20.72,0,0,0,4.41,5.09,7,7,0,0,0,6.35,1.34c-5.45,3-11.89,6.15-17.63,3.72-3.9-1.65-7.63-5.75-11.51-4.07a9.31,9.31,0,0,0-3.18,2.82,62.78,62.78,0,0,1-14.71,13.33c-2.32,1.44-4.93,2.68-7.65,2.52-3.7-.23-6.71-3-9.39-5.53l-6.59-6.35a7.51,7.51,0,0,0-3.86-2.42c-2.1-.3-4,1.18-5.6,2.56-2.75,2.37-7.83,10.72-8.24,7.11"/></g></mask><linearGradient id="linear-gradient" x1="28.51" y1="993.28" x2="26.92" y2="993.78" gradientTransform="matrix(54.67, 0, 0, -26.56, 625.25, 26900.79)" gradientUnits="userSpaceOnUse"><stop offset="0" stop-color="#1c2f57"/><stop offset="1"/></linearGradient></defs><title>Untitled-1-01</title><path class="cls-2" d="M1944.63,532.43a26.48,26.48,0,0,0-12.44-1.25h0c-3.13.56-5.38,1.94-6.07,4-.58,1.77.06,3.78,1.57,5.74l-2,4.27,28.1,9.82,4.13-9.47c1.44-4.41-4.53-10.31-13.33-13.17"/><path class="cls-3" d="M2323.7,490c0-7.27-6.28-13.55-7.6-15.54s-9.43-14-9.43-14-.31-20.22-3.43-31.12-11.81-14.41-17.37-16.85c-4.71-2.07-13.58-15.48-16.18-19.51a3.36,3.36,0,0,0-2.07-1.46l-.22-.06a3.37,3.37,0,0,0-4.06,2.49c-.71,3,1,6.62,1.57,7.7-.44-.7-1.74-2.19-4.1-.14-3,2.59,1,6.79,1,6.79a2.5,2.5,0,0,0-1,2.32c0,1.8,12.47,15.19,12.47,15.19l.6,9.77-15.18-12.63c-6.08-3.45-8.95-.6-10.17,1.62a2.4,2.4,0,0,0,.6,3c5.61,4.53,11.38,14,11.38,14,4.65,11.88,13.67,18.5,14.72,20s.45,2.71-.3,6.31.45,7.67.45,9.78-.3,7.82-.3,9.17,3.61,4.06,3.61,5.26-2.41,3.46-2.41,3.46c-2.25,13.83,4.06,16.54,5,17.89s1,5,1,5c-5.86,3,0,14.74,0,14.74-5.26-2.11-1.25,2-7.74,2s-21.08,6.9-29.59,7.3c-4.36.21-14.11,2.86-22.61,5.39,1.46-4.58,2.06-10.11-2.46-12.1a72.89,72.89,0,0,0,1.83-16.32c0-37.44-28.1-67.8-62.77-67.8s-62.77,30.36-62.77,67.8a70.88,70.88,0,0,0,14.63,43.51h0s-5.61,6-2.54,13.44c-3.07,1.11-5.53,2.1-5.53,2.1s-6.71,5.83-14.87,5.83-17.79,6.13-20.41,7-14.58,3.79-16,5.83-10.2,1.75-15.16,1.75a38.32,38.32,0,0,0-13.41,2.92c-2.63,1.17-11.67,5.84-13.13,5.84s-5.83-2.63-8.16-3.79-11.66-10.8-16.62-12.26a66.82,66.82,0,0,1-9.62-3.79s-10.79-5.55-12.83-5.55-5.25-9.92-5.25-14,.29-19.55.29-19.55-9.91-13.42-13.12-14.3-15.74-1.16-16.91-1.16-4.37,7.29-4.37,8.46-1.75,1.46-2.34,2.33-2,5.55-2.91,7.3-2.92,2.33-3.21,4.67.87,11.09.87,13.42,23.91,31.52,23.91,31.52l1.46,7s7.29,10.21,9.33,14.59,11.08,11.67,15.46,16.05,11.37,7.3,11.37,7.3,11.66,7.88,18.37,8.75,2.33,5.84,15.16,5.84,67.65-13.72,67.65-13.72l5.54,3.21s-4.38,28.89-4.38,32.39,3.5,7.3,2.63,8.47-9.62,6.71-10.67,11.09-9.45,11.09-27.24,12-57.44,14.3-72.31,16.63S1952.3,739,1945,739.26s-9.91,5-14.57,11.67-22.75,87.55-22.75,87.55-2.91,21.59-2.91,23.34-.88,19-.88,24.81,1.46,8.75,1.46,8.75-16,27.72-23.33,33.56-35,10.8-49,9.63-14,6.42-14,6.42h-2.91l-2.34,8.75c18.66,9.63,40.24,14.89,40.24,14.89a334.69,334.69,0,0,1,38.49.58l4.37,5.84,30.33,5s3.5-20.43,3.5-22.47,2-6.13,2.62-10.8-.58-8.17,0-12,0-7.88,0-11.4,3.21-7.57,3.21-12.24,6.7-9.34,6.7-9.34,8.46-6.13,9.63-14,8.45-13.13,13.41-18.67,7.29-11.67,10.5-25.1,17.78-24.8,18.07-25.68,20.42-10.5,28.87-12.84,28-6.71,32.66-7.29,14.58-5.55,26.53-5.55,34.7-2.33,34.7-2.33l1.17,16.92s1.46,14.3,1.46,21.6,1.45,20.13,1.45,25.68,6.71,12.25,7.29,21-3.79,19.84-7.58,19.55-11.37,2.33-14.58,3.21-7.29,9.63-7.29,9.63c-5,32.1,9.79,35.89,9.79,35.89,16.5,2.63,18.79,7,18.79,7l-1.75,7.58c0,4.38,15.45,14,15.45,14,23.62,3.21,26.54-11.38,26.54-11.38,3.2-16.34-1.46-33-1.46-35.89s-1.75-16.93-1.75-21.6,2-20.42,2.33-22.76,5.54-6.42,10.21-12.55,12.83-40,13.41-44.65,4.66-15.75,5-19.55,1.16-7.88,2.91-9.63a6.3,6.3,0,0,1,3.39-1.18,15.77,15.77,0,0,0,11.78-8.17c11.78-21.84,8.46-71.26,8.46-71.26L2220,701.9s7.92-9.92,7.92-18.85,7.93-12.23,10.58-20.17S2250,627.51,2250,622.55s.66-17.86,3-18.19,39-16.2,43.94-18.84,7.93-3.64,13.21-6.29,12.23-9.25,12.89-17.52,5.94-26.12,5.94-30.09-5.28-34.38-5.28-41.66"/><path class="cls-1" d="M2082.44,691.86l-.12-.32.14.29,0,0m127.15-151.37a169.13,169.13,0,0,1-17.84,5.72,1.31,1.31,0,0,1-1.27-2.18,83.65,83.65,0,0,0,6.21-7.66c8.59-11,11-32.94-2.3-45.84s2.3-25.31,2.3-25.31c-20-15.28-37.72-13.6-37.72-13.6-33.89.24-49,25.37-49,25.37s-15.84,16.9-13.71,50c0,0,0-1.07.18-2.91a75.82,75.82,0,0,0,14.35,38.86c-5.47,5.11-3.83,10.61-2.95,12.63l-2.92,1.66a25.88,25.88,0,0,0-3.34,2.23c-2.21,1.77-7.42,5.24-13.73,4.85s-14.64,3.75-18.41,5.84a16.8,16.8,0,0,1-4.31,1.69c-3.81.9-11.22,2.91-13.73,5.31,0,0-3,2-17.22,1.72a38.21,38.21,0,0,0-21.09,6.32,8.29,8.29,0,0,1-7.81.66c-2.83-1.25-6-2.87-6.3-3.91-.51-1.92-12.73-10.28-12.73-10.28s-25.33-12.95-26.35-9.18c-1.93,7.13-5.1,14-10.18,19.38a2.34,2.34,0,0,0-.66,2c.21,1.09,1.23,1.3,2.11,1.3,5.38,0,9.28-5.25,14.44-6.76a2.23,2.23,0,0,1,1.72,0,2.32,2.32,0,0,1,.91,1.46c1.15,3.94,1.11,8.75,4.41,11.17,3.69,2.7,9,.5,13.39,1.59,5.05,1.25,8.12,6.49,12.88,8.6,4.07,1.8,8.84,1.06,13-.5s8-3.88,12.26-5.3a30.81,30.81,0,0,1,19.83.11c2.36.82,4.82,2,7.25,1.4a12.53,12.53,0,0,0,4.1-2.16,41.75,41.75,0,0,1,21.55-6.95,27,27,0,0,0,5.61-.47c4-1,7.2-4.41,11.29-4.56h0a2.94,2.94,0,0,1,2.86,4q-9.48,25.74-16.37,52.35c-2.07,8-4,16.6-1.46,24.51a64.59,64.59,0,0,0,3.07,7.24c-.5.38-6.61,5-8.18,7.09s-2.47,2.74-3.92,6.75a24,24,0,0,1-10.61,6.63c-6.42,1.8-16,2.4-20.06,3s-11.21,1-12.89,1.52-5.33,2.15-5.93,2.29-35,9.3-35,9.3l-12.31,2.74a35.56,35.56,0,0,0-13.76,3.79c-6.35,3.48-9.67,4.32-9.67,4.32s-4.06,1.42-6.42,1.13-6,1.81-9.4,6.66-7.61,7.8-7.61,10.44.29,5.28.1,6-4.52,16.17-6.52,19.64a8.79,8.79,0,0,0-1.26,6.22s-3.58,17.6-5,20a9.58,9.58,0,0,0-1.47,5.16c0,1.16-2,12-2.34,13.92s-4.48,4.42-3.29,7.72-2.22,17.05-2,21.85-.32,12.82-.32,12.82-2.6,19.22,1.16,25.54l11.23,8.15s22.17-21.92,18.46-35.38-1.9-11.31,0-24.73,15.35-33.63,15.35-40.36V775.53c2.51,1,4.81,2.84,7.21,4.2a5.76,5.76,0,0,0,3.19,1,2.37,2.37,0,0,0,2.27-2.08c0-1.56-1.88-3.21-.82-4.35a2.11,2.11,0,0,1,1.13-.52c2.45-.54,5.11-.42,7.3-1.64.51-.28,1-.73,1-1.31s-.6-1-1.14-1.33a20.08,20.08,0,0,0-5-1.92,21.79,21.79,0,0,0,6.71-5.46c7.34-9.17,22.45-12.84,28.41-12.84s32.53-11,33.9-11,4.13-7.33,12.83-7.33,26.12-15.13,26.12-15.13a30.94,30.94,0,0,0,6.57-7.52,42.07,42.07,0,0,1,11.13-3c4.86-.61,10.18-.5,14-3.5.34-.27.7-.63.66-1.06a1.32,1.32,0,0,0-.56-.82,29.71,29.71,0,0,0-5.26-3.71,6.29,6.29,0,0,1-2.73-2.21,4.21,4.21,0,0,1-.33-2.56c4.22-7.9,7.3-17.38,14.15-22.94,6.42-5.22,15.26-6.22,22.5-10.22s12.66-14.3,7-20.31c-1.52-1.6-3.65-2.63-4.86-4.49-2.21-3.39-.44-8,2.18-11.11s6.06-5.58,7.82-9.23c3.48-7.21-.85-15.56-1.66-23.52,0-.39-.06-.77-.08-1.15A20.37,20.37,0,0,1,2159.24,568c28.77-8,44.5-19.24,51.56-25.53a1.16,1.16,0,0,0-1.21-2"/><path class="cls-4" d="M2101.14,494.24s7.17-11.89,28.62-16a68.6,68.6,0,0,1,63.42,21.34,4.6,4.6,0,0,1,1.21,3.12V519a6.41,6.41,0,0,1-1.16,3.69c-3.34,4.78-14.27,18-37,25.64a60.76,60.76,0,0,1-55.85-8.63c-.6-.45-1.19-.91-1.79-1.38,0,0-8.18-26.85,2.55-44"/><path class="cls-3" d="M1018.38,233.31a10.39,10.39,0,0,1,6.84-5.32c9-1.9,13.57,9.95,21.89,10.61,7,.55,12.85-7.09,19.71-5.81,5.44,1,8.18,6.94,10.6,11.92s6.86,10.44,12.26,9.22c2.56-.57,4.53-2.57,6.8-3.9a14.61,14.61,0,0,1,13.43-.37,6.5,6.5,0,0,0,8.12-2.25,33.53,33.53,0,0,1,9.16-9.52l0,0a7.18,7.18,0,0,0,3.29-6.61c-.1-1.13-.23-2.25-.42-3.38-2.28-13.66-11.35-25.27-15-38.64-3.17-11.71-2.06-24.43-6.5-35.72-5.43-13.79-18.9-25.13-18-39.93,0,0-17.86,1.64-21.87,3.21S1058,121,1058,123.59s-5.88,11.49-4.51,13.58,10.78,13.58,10.78,17.76,4.38,15.14,4.54,16.71c.12,1.25,0,7.13,0,9.47a86.65,86.65,0,0,0-6.65-7.43c-1.45-1.5-3-3.05-5-3.66-.29-.09-.6-.15-.91-.22-1.48-1.3-3.06-2.63-4.69-3.94-1.09-2.34-3.45-6.52-6.83-8-.23-.1-.71-.28-1.42-.55a11.31,11.31,0,0,0-1.65-.61c-20.07-7.38-127.72-45.44-127.72-45.44-14.38-6.17-35.61,2.4-36.64,2.4s-13,8.56-15.06,8.91-11.3,7.53-15.41,8.9-24.69,11.74-24.69,11.74-19.73,7.36-21.47,7.36-10.25,6-13,6.19-5.6,4.07-6.57,4.25a8.94,8.94,0,0,1-3.87,0c-1.35-.37-6.38,3.86-7.74,3.86s-11.88,8-14.11,8-5.79,2-7,1.9-8.91-3.79-8.91-3.79l-9.8-8.91-7.23-1c-5,1-6.13,4.91-6.13,5.91s4.46,4.12,4.46,4.12-5.79-1-7.46-1.34-3.45,2-4,2.9a70.6,70.6,0,0,0-2.79,6.6c0,.05,0,.09-.13.12a7.07,7.07,0,0,0-4.2,4.09,74.88,74.88,0,0,1-4.57,11.18c-3,5.33-3.55,17.17,2.36,17.76a6.33,6.33,0,0,0,7.1-4.74l13.61,4.15,7.69,8.88s6.5,7.1,8.28,7.1S755,229.57,760,229.57s16.27,4.14,20.41,4.14,19.52-9.47,23.07-9.47,29-12.43,29-12.43l-2.37,10.06s-6.51,18.36-6.51,25.46S795.81,348,795.81,348s-10,27.23-10,32.56-3.55,14.21-8.29,26.05-29,24.87-29,27.83-20.11,18.35-20.11,18.35L711.22,477l-7.1,9.47s-7.69,12.78-5.91,17.17c5.17,12.78-7.1,7.11-16,7.11S674,522,672.18,524.39s-29,20.72-31.94,25.46S626,570,623.67,577.67s-18.33,19-18.92,24.87S586.41,620.3,581.68,625s-22.48,20.12-22.48,20.12-12.42,15.4-16,16-22.48,12.43-24.85,12.43-5.91,24.27-5.91,24.27S543.82,734,550.32,734s24.26-10.66,26-13.62,3.55-18.35,3.55-20.72,8.28-15.39,11.24-16,18.34-18.94,18.34-18.94,17.15-13,26-18.94,43.18-24.87,43.18-24.87,21.88-1.78,26.62-1.78,18.33-7.69,28.39-13,14.79-15.39,23.66-19.54,14.2-14.8,17.16-21.9,13-14.21,18.93-21.91,16-14.8,19.52-19.53,11.83-18.35,11.83-18.35,2.36-12.44,8.28-16.58,7.1-8.29,9.46-14.21,13.61-17.76,13.61-17.76,13,8.29,13,17.76,7.1,19.54,7.1,27.82-5.92,34.34-5.92,43.81-1.18,12.44-5.32,12.44-10.65,8.29-11.83,12.43-8.28,8.88-17.75,13.62-8.3,18.61-16,24.52-9.44,6.85-18.91,11.59S782.8,640.43,781,645.16,758,665.29,749.08,676.54s-24.84,16.58-27.8,20.13-17.16,5.92-17.16,5.92S680.46,712.65,674,720.35s1.18,23.68,2.95,32.56,17.16,12.43,20.11,18.94c1.59,3.49,2.33,12.93,2.67,20.94a48.5,48.5,0,0,0,13.72,32.07,73.19,73.19,0,0,0,24.73,16.31,23.74,23.74,0,0,0,32.29-17.86,86.49,86.49,0,0,0,1.11-10.67A24.67,24.67,0,0,0,769.2,801c-12.75-26.68-5.33-41.53-5.33-41.53,4.73-15.39,65.07-50.91,67.43-51.5s17.75-3.56,24.85-3.56,27.8-20.12,33.12-22.49,47.33-26.64,69.21-56.24,20.71-65.72,20.71-71,2.95-29.61.59-72.23-13-72.82-13-75.19,5.32-24.27,5.32-27.23,10.65-25.46,10.65-33.15,8.28-22.5,8.87-24.87,5.92-9.47,8.87-17.76,7.1-21.31,7.1-21.31,7.83-19.6,9.55-32.25c-1-5.81-1.75-11.85,1.25-17.29"/><path class="cls-2" d="M1937.24,566.51c-7.34-1.87-14.06-.38-15,3.32l-.75,3,1.39.36c1.62,2.76,5.74,5.42,11,6.74s10.12,1,12.85-.7l1.4.36.76-3c.94-3.7-4.26-8.22-11.61-10.08"/><path class="cls-3" d="M902.48,108,867,96.81a8,8,0,0,0-10,5.07L774.2,343.69a3.91,3.91,0,0,0,2.41,5l135.32,58.8a12.69,12.69,0,0,0,17-7.27L1013.11,171a11.6,11.6,0,0,0-6-14.53Z"/><path class="cls-1" d="M709.29,179a18.23,18.23,0,0,0,14.85,12.17,3.14,3.14,0,0,1,2.64,3.91,23.09,23.09,0,0,0-.62,7.59,2.72,2.72,0,0,0,5.09,1.12,56.5,56.5,0,0,1,8.35-11.66,5.85,5.85,0,0,1,7.73-.61,10.65,10.65,0,0,0,8.72,1.52c4.6-1.25,8.14-4.84,11.42-8.31a47.15,47.15,0,0,1,6.29-5.87,3.87,3.87,0,0,1,6,2c1.44,4.89,4.35,9.32,9.24,8.21a8.11,8.11,0,0,0,3.26-1.64,65.34,65.34,0,0,0,15-17.33,4.34,4.34,0,0,1,3.81-2.22c3.88.16,3.52,5.79,6.51,7.53,5.24,3.06,10.83-9,15.81-5.54,7.12-12.67,17-31.2,18.7-45.64-11.05,8.33-29.21,18.24-42,23.63-3.3,1.4-7.76.82-11.06,2.22-3.88,1.64-6.23,4.45-10.1,6.09-1,.41-2.46.35-3.48.78a173.38,173.38,0,0,0-22.55,11.84c-1.1.7-2.87,1.65-4.16,2.55a11.08,11.08,0,0,1-3.38,1.48c-1.64.35-4.93,1.27-7,1.9-.94.28-1.51-.59-2.48-.85a35,35,0,0,1-6.43-2.94c-1.69-.95-3-2.75-4.12-3.75-2.41-2.18-4-4-5.68-5.16l-7.23-1a7.39,7.39,0,0,0-6.13,5.91c-.14.69,2.35,3.59,4.46,4.12-1.86.22-7-1.86-8.47-1.35s-3.1,2-5.7,8.8"/><path class="cls-1" d="M930.1,581.4a98.91,98.91,0,0,0-11.29-13.52,65.31,65.31,0,0,1-19-45.57v-.53c0-17.59-2.93-16.61,0-27.36s9.77-10.75,0-22.48-43.68-15.63-43.68-15.63l7.72,10.54a30.1,30.1,0,0,1,5.53,13.93,40,40,0,0,0,1.31,6.26c1.36,4.58,6.11,9.62,5.55,14.86-1.06,9.89-5.73,21.84-5.73,31.61,0,7.42-3.17,17.75-4.7,22.31-3.49.21-7.54,6.53-9.68,9.29-1.58,2-6.28,11.68-8.68,12.57-15.25,5.66-17,10.38-28.39,21-3,2.76-4.71,8-7.39,11s-6.88,3.27-10.38,4.92c-7.65,3.61-10.59,12.71-14.38,20.28-12.65,25.23-40.11,38.58-62,56.33-2.32,1.87-4.75,4.1-5,7.07,0,0-9.1,2.89-15.73,4.3s-21,10.66-21,10.66l-9.17,7.1s39.4.67,62.12,51a1.66,1.66,0,0,0,3.16-.9l0-.28a7,7,0,0,1,5-7.55,12.38,12.38,0,0,0,6.36-5.18c6.74-9.81-4.9-14.72,0-28.82,2.5-7.18,5.14-13.76,7.14-18.5A19.74,19.74,0,0,1,767.32,700l.07,0c2.43-1.17,4.88-2.54,6.46-4.72,1.94-2.67,2.3-6.16,3.74-9.12,4.47-9.18,16.81-10.27,25.78-15.14,14.46-7.85,20.39-26.24,34.32-35,7.75-4.88,18.23-7.13,22.09-15.45,1.74-3.77,1.71-8.14,3.13-12,1-2.74,3.28-5.36,5.9-6.2a5.19,5.19,0,0,0,3.73-4.59,3.25,3.25,0,0,1,3.17-3.05c5.34.07,11.24,4.26,15.79.83a7.33,7.33,0,0,0,2.56-7.2c-.94-5.15-5-8.32-8.94-11.26l26,3.8a2.82,2.82,0,0,0,2.5-4.67,14.42,14.42,0,0,0-3.71-3c15.11,8.69,25.73,16.36,20.19,8.3"/><path class="cls-2" d="M1948.09,579.57c-.94,3.71-7.66,5.19-15,3.32s-12.54-6.38-11.6-10.08,7.65-5.19,15-3.32,12.54,6.38,11.6,10.08"/><path class="cls-4" d="M1946.67,579.21c-.84,3.31-6.84,4.63-13.4,3s-11.2-5.71-10.36-9,6.84-4.63,13.4-3,11.2,5.71,10.36,9"/><path class="cls-1" d="M794.58,359.59a16.7,16.7,0,0,1,.1-4.63c-2.34-1.53-9.83,8.7-9.13,28.05.2,5.61-3.52,15.2-6.61,19.89-4,6.13-9.63,13.86-15.42,18.35a319.2,319.2,0,0,0-58.38,58.9c-3.52,4.63-7,9.47-8.59,15.06a20.9,20.9,0,0,0-.71,8.36,4.86,4.86,0,0,1-5,5.49,21.34,21.34,0,0,0-9.35,1.47C677,512.34,673.17,516,672,520.7c-.4,1.61-.51,3.36-1.5,4.69a9.31,9.31,0,0,1-3.88,2.55C644.75,538,632.46,557.81,621,582.68c-2.75,6-6.87,4.19-14.65,12.93-3.6,4-5.36,10-9.09,13.81q-23,23.46-46.07,46.91c7.94,3.52,17-.6,24.7-4.65l36-18.92c3.81-2,7.74-4.11,10.49-7.43,2.29-2.76,3.62-6.19,5.71-9.1,5.68-7.88,15.9-10.77,23.85-16.35,9.63-6.76,16.23-17.73,27-22.5,8.82-3.92,19.87-3.38,26.81-10.08,4-3.87,5.78-9.42,8.7-14.15s8.16-9,13.54-7.65a1.9,1.9,0,0,0,2.27-2,13.3,13.3,0,0,0-.59-3.25A69,69,0,0,1,726.82,525l-.77-11.22c-.43-6.1,0-13.7,5.53-16.25,2.12-1,4.73-1,6.42-2.62,3-2.81.91-7.67,1-11.75.09-6.77,6.29-11.64,11.9-15.44l31-21.05a23.37,23.37,0,0,0,6.32-5.5c1.75-2.49,2.46-5.54,3.07-8.52a234,234,0,0,0,3.29-73.06"/><path class="cls-5" d="M1584.15,102.78c24.26-5.74,48.53-12.5,73.07-16.9,22.06-3.94,46.07-3.26,62.61,13.88,13.48,14,19.38,34.43,17.87,53.56-1.81,22.83-13,44-27,61.61-14.56,18.22-32.5,33.31-49.7,48.92-15.34,13.93-31.69,28.8-39.28,48.62-7,18.17-5.19,39.57,9.64,53.28s37.42,19.69,57,20.86c20,1.19,40.18-4.23,55-18.07,12.53-11.68,22.92-32.08,16.17-49.29-5.7-14.52-23-21.91-37.75-19.15-18.77,3.5-32.58,20-40,36.64-15.72,35.58-7.16,79.48,19.86,107.18A107.64,107.64,0,0,0,1778,475.74c11.55,0,23-2.33,34.54-2.1s22.23,3.74,30.62,11.81c7.27,7,12.25,16.21,15.21,25.81,7.41,24,1.25,48.46-.14,72.78-.58,10.14,2.21,18.72,10.09,25.42a41.9,41.9,0,0,0,48.9,3.13c6.6-4.27,13.84-9.54,17.84-16.48,3.73-6.48,3.37-13.68,1.2-20.62-.47-1.51-2.86-.87-2.38.66,2.78,8.91,1.67,16.9-4.83,23.79-6,6.32-14,12.29-22.39,14.86-18.9,5.82-45.53-4.09-46.06-26.54-.27-11.64,2.34-23.45,3.26-35,.87-11.08,1-22.3-.87-33.29-2.84-16.35-11.15-33.1-25.58-42.12-18.11-11.33-39.57-4.61-59.41-4.56A105.46,105.46,0,0,1,1723.46,458c-33.75-20.42-52.25-59.75-45.75-98.85,3.14-19,12.39-38.41,28.48-49.67,14.84-10.39,37.26-10.52,48.36,5.65,11.6,16.92-.51,40.46-13.83,52.42-15.85,14.24-37.5,18.5-58.22,16.05-19.63-2.33-44.09-9.57-55.73-26.88-12.18-18.13-6.1-41.87,5.35-58.66,12.11-17.77,29.63-31.56,45.44-45.85,15.4-13.93,30.56-28.42,42.32-45.65,20.38-29.87,29.92-70.91,7-102.27-10.66-14.57-26.74-22.21-44.63-23-21.66-.92-43.33,6-64.19,10.89l-34.54,8.18c-1.55.36-.89,2.75.66,2.38"/><path class="cls-1" d="M1469.55,256.68a2.07,2.07,0,1,1,2.44-1.62,2.06,2.06,0,0,1-2.44,1.62"/><path class="cls-1" d="M640.33,370.88a2.07,2.07,0,1,1,2.43-1.62,2.06,2.06,0,0,1-2.43,1.62"/><path class="cls-1" d="M510,896.08a2.07,2.07,0,1,1,2.44-1.62,2.07,2.07,0,0,1-2.44,1.62"/><path class="cls-1" d="M1194.35,785.44a2.07,2.07,0,1,1,.81-4.06,2.07,2.07,0,0,1-.81,4.06"/><path class="cls-1" d="M972.9,765.06a2.07,2.07,0,1,1,2.43-1.62,2.06,2.06,0,0,1-2.43,1.62"/><path class="cls-1" d="M1284.9,632.35a2.07,2.07,0,1,1-2.07-2.07,2.07,2.07,0,0,1,2.07,2.07"/><path class="cls-3" d="M2222.63,665.62c32.86,81.67,71.71,165.21,143.1,220.32,31.74,24.51,69.06,42.43,109.05,47.69,37.58,5,77.11-1.57,110.46-19.86A145.6,145.6,0,0,0,2628,878.62c12.85-15.75,22.13-33.83,28.91-52.94,13.85-39.11,17.23-80.87,25.78-121.25,7.27-34.3,21-69,45.14-95.09,11-11.86,24.31-21.85,39.75-27a81.81,81.81,0,0,1,51.75.2c37.06,12.24,64.15,45.6,84.37,77.39,21.22,33.36,39.92,69.77,69.65,96.6,7.15,6.45,16.41,12.54,24.66,17.5V760.27c-34.06-20.46-50.52-52.4-70.74-85.45-20.68-33.81-42.71-67.83-76.37-90.14-15.91-10.54-34.18-17.58-53.33-18.6a92.74,92.74,0,0,0-49.91,11.85c-30.52,17-50.61,48.4-63.56,80-14.92,36.38-18.57,75.81-25.94,114.12-7.47,38.81-18.87,78.81-47.49,107.61-26,26.16-62.43,40.36-98.87,42.93-38.88,2.74-77-8-110.54-27.35-76.19-44-120.64-123.4-154.14-201.92-4.38-10.26-8.59-20.59-12.75-30.93-1.23-3-4.08-5.22-7.5-4.26-2.9.81-5.5,4.42-4.26,7.5"/><path class="cls-5" d="M1052.55,130.64s5.83,8.15,12.21,10.74,17.13.6,17.53,7-4,14.89-3.59,18.61c.25,2.3.8,7.76,1.18,11.58a20.15,20.15,0,0,0,2.42,7.71l2,3.57s-6.31-7.07-15.51-8.72v-9.47s-4.49-12.93-4.54-16.71l-1.9-5s-21.34-13.55-21.08-17.58Z"/><path class="cls-4" d="M724.89,691.22s10.88,24.77,51.81,53.2c0,0-13.6,12.54-11.21,27.91s16.86,47.38,16.86,47.38l-37.56,40.36L706.5,834l-20-43.22L667.8,759V719.83Z"/><path class="cls-3" d="M746.16,766.68a4.73,4.73,0,0,1,1.58-5.93c7.86-5.37,4.2-14,4.2-14-5.07-11.36,0-22.13,0-22.13l-27.05-33.45c-5.62,2.8-5,7.07-5,7.07s-5.08,1.53-17.93,5.15-28,16.91-28,16.91c31,3.41,49.11,27.21,57.14,41.06a97,97,0,0,0,10.32,14.77C755.74,792.81,768.1,835,768.1,835c.95-19-16-56-21.94-68.34"/><path class="cls-6" d="M690.8,509.06s4.13.69,5-4.17,0-1.32,0-1.32l-.08-4,2.45,4.07s5.36,16,17.64,28.14a1.23,1.23,0,0,1-1.41,2c-8-4.07-19.89-12.07-23.64-24.72"/><path class="cls-6" d="M672,520.7a41.41,41.41,0,0,1,2,16.12s-3.26-.27-7.34-8.88A8.55,8.55,0,0,0,672,520.7"/><path class="cls-6" d="M847.47,577.68s7.27,5.94,20.28,9.39a1,1,0,0,1-.3,1.93c-7-.32-17.34-2.06-26.58-8.54Z"/><path class="cls-6" d="M865.83,555.82l8.93,2.27a1.82,1.82,0,0,0,2.15-2.44,24.26,24.26,0,0,0-8.43-10.74Z"/><path class="cls-4" d="M768.57,657.08s16.15,37.83,53.55,56l9.18-5.12s-43.67-21.83-55.23-57.29Z"/><path class="cls-3" d="M776.07,650.63a39.55,39.55,0,0,0-7.51,7s9.55,17.83,14.21,22.51c0,0,5.81-3.61,8.1-4.08a70.46,70.46,0,0,1-14.8-25.47"/><path class="cls-4" d="M786.93,634.89s24.22,54.86,69.22,69.47c0,0,6.15.57,12.33-6.59,0,0-37.76-1.91-76-74.16Z"/><path class="cls-3" d="M815.86,660.07s-19.81-28.45-23.38-36.46c0,0-5.13,8-5.55,11.28,0,0,11.38,23.45,20.82,33.23,0,0,6.89-5.46,8.11-8"/><path class="cls-5" d="M993.65,4.37c-47.15-15.63-73.21,12.55-73.21,12.55-36,30.06-22.06,72.59-22.06,72.59-2.6,9.47-1.61,14.4.35,16.95L867,96.81c-10.07-.51-10,5.07-10,5.07L774.2,343.69c-1.26,3.67,2.41,5,2.41,5l18,10.94s16.56-34.75,16.56-48.23,11.23-41.59,12.47-64,28-42.75,31.06-57.5,17.12-30.21,30.6-38.19,29.2-4.38,46.32-8.74c11.6-3,43.56,2.09,63,5.65a1.39,1.39,0,0,0,.73-2.66l-38.43-15.21c.69.09-.7-.08,0,0,3.54.37,7.47.51,10.26-1.69,2.29-1.8,3.28-4.82,3.51-7.72.69-8.9-4.6-17-8.78-24.86S954.5,78.63,959.15,71c3.81-6.23,11.48-8.64,17.61-12.6a36.36,36.36,0,0,0,15.16-22c2-8.07,11.05-13.32,19-10.9,6.86,2.09,30.39,13.18,34.15,71.35,0,0,7-68.84-51.41-92.47"/><path class="cls-4" d="M784.74,353.93,916.66,410a2.47,2.47,0,0,1-.49,4.69A179.85,179.85,0,0,0,893.4,421c-27,9.19-18.35-21.28-39-17.05s-33.28,12.16-37.34-1.08-13.49-23-18.28-23.05-14.07-25.89-14.07-25.89"/><path class="cls-4" d="M1026.21,227.78c-2.24-4.69,7.69-3.95,7.6-22.56-.08-16.32-2.76-19.87-6.66-22a8.36,8.36,0,0,0-11,2.77c-11.1,17.05-16.32,34.51-23.41,54.49L931.59,412.6a101.46,101.46,0,0,1,61.15,32.24q17.7-84.72,35.38-169.43"/><path class="cls-4" d="M944.43,394.44l-11.75,16.49a6.59,6.59,0,0,1-7.79,2.31L916.66,410,893.4,421c12.59-3.65,27.84-.42,38.17,7.64,5.25,4.1,9.56,9.47,15.42,12.62,8.22,4.43,18.13,3.79,27.44,3,5.76-.46,12.12-1.17,14.59-8.09a13.85,13.85,0,0,0,.58-6.67c-2-13.31-16-20-28.22-24.66l-16.93-6.5"/><g class="cls-7"><path class="cls-4" d="M571.44,634.42s8.77,25.4,32.49,36.71l-22.41,80.59h-51.7l-32.89-69.88,21.79-26.32Z"/></g><path class="cls-3" d="M575.28,676.35a2.52,2.52,0,0,1,1.41-3,6.21,6.21,0,0,0,3.58-7c-5.75-8.75-.12-15.91-.12-15.91l-8.72-16.09c-3.24.93-3.35,3.24-3.35,3.24s-2.83.31-10,1-16.43,6.18-16.43,6.18c16.05,4.85,23.28,19.2,26.16,27.29a39.66,39.66,0,0,0,4,8.82c10.76,16.18,7.21,57.27,7.21,57.27,9.06-29.46-1.85-54.76-3.77-61.83"/><path class="cls-3" d="M606.39,595.61s7,25,38.92,44.17L651.9,636s-31.12-18.06-41-44.66a14.46,14.46,0,0,0-4.48,4.31"/><path class="cls-3" d="M617.46,585.65s10,26.81,42,46l5.77-3.26s-33.34-20.47-43.25-47.07a14.46,14.46,0,0,0-4.48,4.31"/><path class="cls-4" d="M624,623s11.1,11.46,21.3,16.75L651.9,636s-16.08-10.71-24.13-19.29Z"/><path class="cls-4" d="M633.8,610.59s12.21,15.12,25.62,21.08l5.77-3.26s-17.12-10.77-26-21.26Z"/><path class="cls-4" d="M1905.36,895.38s5.24,8.22,31.2,15.76a30,30,0,0,1-2.52,9l4.84,27.94-10.29,35-35.21-6.24-3.25-5.15-35.75-.27-42.8-16.8,4.55-9.55,13.33-11.06,59.58-16Z"/><path class="cls-3" d="M1892.53,969.21h6.11l4.27,6.82-6-1Z"/><path class="cls-3" d="M1916.59,903.53l-11.23-8.15L1889.64,920c-9,12.87-14.41,12.37-14.41,12.37-15.21,6.28-40.11,6.31-40.11,6.31-8.43-1-12,1-12,1l-3,2.54-1.3,2.15a1.17,1.17,0,0,0-.34,2.15c4.75,2.81,17,8.9,39,13.06a.29.29,0,0,0,.17-.55s-15.35-3.81-17.42-6.64c-.72-1,1.46-.29,2.66-.13,8.06,1,13.47-.65,21.51-1.85l21.4-3.22c3-.45,6.25-1,8.41-3.17,1.78-1.78,2.5-4.34,3.7-6.55,3.36-6.18,10.5-9.65,13.64-15.94,3-6,.41-10.84,5-18"/><path class="cls-6" d="M1926.23,756.53s12.67,6.07,19.93,11.37a.84.84,0,0,1-.86,1.43c-5.44-2.65-13.83-6.36-19-6.84Z"/><path class="cls-6" d="M1943.23,739.43l12,6.15a1,1,0,0,0,1.3-1.29c-1.33-2.72-3.82-6.63-6.87-6-4.64,1-6.42,1.13-6.42,1.13"/><path class="cls-3" d="M1904.52,857s20.63,20.09,50.19,24.82l3.62-4.44s-33.5-6.94-53.33-26.14c0,0-.87,4.14-.48,5.76"/><path class="cls-4" d="M1934.8,876.13s12.44,4.69,19.91,5.71l3.62-4.44s-8.43-1.12-22.93-7.34a16.68,16.68,0,0,1-.6,6.07"/><path class="cls-3" d="M1906.23,843s25.83,20.77,60.07,26.08l3.64-5s-31.86-3.64-63.19-27Z"/><path class="cls-4" d="M1933.36,852.89a30.53,30.53,0,0,0-.37,6s20.83,9.2,33.31,10.24a29.11,29.11,0,0,0,3.64-5s-25.63-4.51-36.58-11.25"/><path class="cls-6" d="M2280.33,512.53a30.24,30.24,0,0,1,8.27,2.69.86.86,0,0,1-.37,1.6c-2,.15-4.75.55-5.92,1.59a13.7,13.7,0,0,0-2-5.88"/><path class="cls-1" d="M2296.16,520.34c0-5.39,1.53-3.66,1-11s-4.63-6.92-4.63-11.92,1.34-4,1.53-9-6.34-6.54-1.34-14.62a30.9,30.9,0,0,0,4-9.21,3.49,3.49,0,0,0-3-4.23c-7.12-.79-10.57-4-13.3-4.52-3.13-.57-6.86-7.15-9.71-11.15s-6.57-6-8.57-12.57a63.72,63.72,0,0,0-3.32-9.17c-7.17-4.91-13.17,2.67-9.58,4.63s11.67,14.74,11.67,14.74c2.86,10,14.43,19.27,14.43,19.27l.28.06-.28-.06c.89,1.69.24,3.9-.3,6.31s.11,5.58.46,7.52-.21,8.29-.21,8.29c-1.18,5.2,1.5,5.6,2.72,7s-1.62,4.88-1.62,4.88c-2.46,12.74,2.11,16.09,4,17s2,5.88,2,5.88c-6.23,2.89,0,14.74,0,14.74-1.82-1.25-3-.52-3-.52a5.65,5.65,0,0,1-4.72,2.52c-6.21.2-15.79,4.06-15.79,4.06-1.05,5.41-6.62,9.68-6.62,9.68s8.25-3.93,12.87-4.32,11.72-5.19,16.14-5.36,6.92-.41,9.22-3.49,1.54-3.07,5.57-4,.2-6,.2-11.34"/><path class="cls-6" d="M2275.25,461.58a56.23,56.23,0,0,0,14.53,3,.36.36,0,0,1,.07.7,34.88,34.88,0,0,1-14.44.59,17.7,17.7,0,0,0-.16-4.26"/><path class="cls-6" d="M2082.06,690.82s12.3,6,18.54,8.41a.49.49,0,0,1-.19.95c-4.9-.17-14.47-1.13-22.85-5.78Z"/><path class="cls-6" d="M2107,572.06a66.76,66.76,0,0,0,19.7,3.32,1,1,0,0,1,.08,2c-5.87.68-12.78.59-18.89-1.83,0,0-1.2-2.18-.89-3.5"/><path class="cls-4" d="M2189.71,563.61s87.74-10,69.07-24.4l-11.23,2.93-4.18.19a17.43,17.43,0,0,0-3.8.62l-16.93,4.77s-16.59,10.53-32.93,15.89"/><g class="cls-8"><path class="cls-9" d="M2103.09,488s-9.78,13.35-6.92,38.54c.41,3.61,5.5-4.74,8.24-7.11,1.61-1.38,3.51-2.86,5.6-2.56a7.58,7.58,0,0,1,3.87,2.42l6.59,6.35c2.67,2.58,5.68,5.3,9.38,5.53,2.73.16,5.33-1.09,7.66-2.52a62.54,62.54,0,0,0,14.7-13.33,9.25,9.25,0,0,1,3.19-2.82c3.88-1.68,7.61,2.42,11.5,4.07,5.74,2.43,12.19-.69,17.63-3.72a7.05,7.05,0,0,1-6.35-1.34,21.12,21.12,0,0,1-4.41-5.09l-7.17-10.35c-2-2.92-4.59-6.14-8.13-6.14a8.39,8.39,0,0,0-4.32,1.45c-3.48,2.14-6.08,5.41-9,8.23s-6.58,5.36-10.67,5.37c-5.88,0-10.43-5.09-13.52-10.09-1.72-2.8-3.62-6-6.81-6.73-3.49-.82-6.83,1.65-9.58,4-2,1.67-4,3.5-4.62,6"/></g><path class="cls-4" d="M2123.72,791.83c1.67-7,3.35-14.08,2.65-21.2s-4.23-14.38-10.59-17.64c-13.2-6.74-28.2,6.4-43,6-7.58-.2-17.36-3-21.15,3.53-1.06,1.83-1.3,4.07-2.51,5.81-3.31,4.71-12.07,3.62-14.16,9-.52,1.34-.47,2.83-.87,4.2-1.25,4.28-28.46,12.47-32.48,14.39-15.81,7.57,1.22,18-17.75,34.31-4.31,3.7,2.34,10.53,5.15,15.48,2.43,4.28,7.87,5.68,12.75,6.28,24.9,3.08,49.9-4,73.43-12.73,8.59-3.18,17.23-6.66,24.39-12.37,10.68-8.51,17.09-21.13,23.19-33.35"/><path class="cls-4" d="M2117.63,790.33s6.07-35.64-10.85-36.24,3.54,38.46,3.54,38.46Z"/><path class="cls-4" d="M2129,875.54s13.76,9.06,38.49,5.25l-2.33,22.76s15.44,55.7,2.33,69.07c-21.48,21.91-49.95-10.5-49.95-10.5l-3.6-8.36s-21.4-12-21.4-20.89,7-37.49,7-37.49l20.66-9.52Z"/><path class="cls-3" d="M2155.49,882a28.76,28.76,0,0,1-5,11.39c-3.86,4.88-2.64,8.33-3,11.18s-3.91,14.7-3.91,14.7a139,139,0,0,0-28.94-25.1s15.45,6.42,14.39-18.6c0,0,12.48,3.09,26.49,6.43"/><path class="cls-3" d="M2128.13,950.83H2156l1,5.41s-21.69,1.93-30.65.46Z"/><path class="cls-3" d="M2132.65,908.16s-14.51-22.92-36.7-20.94-5,37.52-5,37.52-22.39-63.73,41.67-16.58"/><path class="cls-1" d="M2155.49,882c4.93-12.4-11.56-23.09-11.74-36.44-.08-6,3.92-15.25,5.36-21.11,2.9-11.72-4.57-20.16-7.5-31.87-2.15-8.56,4.08-11,3.93-15-.14-3.69-4.65-8.13-1.79-17.89,4.08-13.92,9.23-26.92,21.45-34.71,5.14-3.27,14.2-3,21.41-4.49a3.42,3.42,0,0,0,.15-6.67,133.24,133.24,0,0,0-26.65-3.86,18.73,18.73,0,0,0-7.89.86c-3.13,1.27-5.4,4-7.54,6.6l-23.94,29.25c-3.13,3.84-6.43,8.11-6.41,13.06s3.21,9,4.14,13.78c1.6,8.15-3.66,16.3-2.92,24.57.33,3.62,1.78,7,2.49,10.59.88,4.37.6,8.88.54,13.34A139.08,139.08,0,0,0,2129,876.66"/><path class="cls-1" d="M2157.54,709.79a50.24,50.24,0,0,0-31.7,11.25,33.26,33.26,0,0,0-5.57,5.68c-6.65,8.95-6.3,21.12-5.67,32.26,7.26.54,13.56-5.14,17.38-11.35s6.18-13.33,10.87-18.9,11.77-9.63,14.1-16.58"/><path class="cls-6" d="M2116.9,768.65s8,7.78,15.13,10.93a1.36,1.36,0,0,1-.28,2.58,25,25,0,0,1-14.21-1.38s1.92-3.17-.64-12.13"/><path class="cls-4" d="M2277.45,596.87c-22.49,5.13-35.92,12-52.64,20.82-3.63,1.91-7.73,4.84-7.37,8.93.62,6.87,12.63,7.6,13.68,14.43.35,2.27-.73,4.5-1.76,6.56-6.83,13.67-12.85,28.06-14.37,43.27s1.38,31,1.76,46.19a42.6,42.6,0,0,1-9,10.55c-5.26,4.65-11.17,8.54-16.22,13.42-3.14,3-6,8-3.33,11.45,2.39,3.07,8.22,3.26,8.71,7.12a5,5,0,0,1-.72,3c-2,3.67-6.3,5.88-7.62,9.85-2,6,3.81,11.63,9,15.35a3.71,3.71,0,0,0,2.88,1,3.6,3.6,0,0,0,1.69-1.21c.25-.26.49-.53.73-.8a11.42,11.42,0,0,0,3.72,2.92c6.07,3,13.74-.11,18-5.37s5.85-12.13,7-18.79c7.3-40.92,4-83.68,16.17-123.42,5.29-17.32,13.56-34.52,12.06-52.57Z"/><path class="cls-4" d="M2118.66,828.66s14.17,14.79,71.05,8.5l-1.29,8.36s-50.09,5.72-69.76-9Z"/><path class="cls-4" d="M2116.91,810.7s15.4,14.8,77.15,8.5l-1.39,8.37s-54.4,5.71-75.76-9.05Z"/><path class="cls-3" d="M2149.9,820c-19-1.68-27.94-6.12-31.24-8.24a74.09,74.09,0,0,1,.13,7.75c7.56,4.51,18.44,6.88,29.56,8.05.36-1.16.68-2.25.92-3.24a21.77,21.77,0,0,0,.63-4.32"/><path class="cls-3" d="M2118.66,828.66c.09,2.74.27,5.47.53,8.21,6.18,4.39,15.13,6.91,24.57,8.27a31.44,31.44,0,0,1,1.3-7.51c-20.15-2.58-26.31-8.88-26.4-9"/><path class="cls-4" d="M2044.55,598.42s12.12,12.89,7.59,54.54l6.72-1.55s2.86-37.81-7.42-54.27Z"/><path class="cls-4" d="M2057.26,593.3s10.43,13.7,7.87,56.64l6.6-1.58s2.7-38.46-7.58-56.46Z"/><path class="cls-4" d="M2279,599.6s-13.91-14.62-15.48-67l-6.45,2.71s2.67,47.39,15.27,66.67Z"/><path class="cls-4" d="M2267.1,607.45s-12.35-15.82-16.06-69.56l-6.32,2.74s2.91,48.16,15.74,69.37Z"/><path class="cls-3" d="M2057.68,593.82c1,1.68,3.68,6.74,5.62,16.7a41.06,41.06,0,0,1,6.43-1.94c-1.18-6.22-2.93-12.1-5.51-16.68-1.86.46-4.26,1.12-6.54,1.92"/><path class="cls-3" d="M2044.69,598.59c.79.93,4.72,6.14,6.94,18.26a13.78,13.78,0,0,0,3.79-2.08c.57-.38,1.15-.73,1.73-1.08-1.17-6.29-3-12.17-5.71-16.55,0,0-1.4.94-6.75,1.45"/><path class="cls-4" d="M789,156.22s-11.67,33.15,7.08,70.87l6-2.56s-17-36.11-5.8-72.88Z"/><path class="cls-4" d="M804.46,148.83S792,184.48,810.7,222.2l6-2.56s-17-36.11-5.79-72.88Z"/><path class="cls-3" d="M804.38,149.05a97.7,97.7,0,0,0-4,30.57,65.86,65.86,0,0,0,6.74-9.27,90.38,90.38,0,0,1,3.49-22.65l-.49.22a21,21,0,0,1-5.75,1.13"/><path class="cls-3" d="M785.62,189a6,6,0,0,0,3.37.15,8,8,0,0,0,3.25-1.64l.54-.45a95.26,95.26,0,0,1,3.46-35.38c-2.41,1.54-4.43,3.36-7.28,4.57,0,0-4.7,13.35-3.34,32.75"/><path class="cls-4" d="M1059,169.8s13.27,15.83-1.19,66.64l8.28-2.57s10.27-41.07.71-58.21c0,0-3.34-5.91-7.8-5.86"/><path class="cls-4" d="M1074.53,183.28s13.27,15.82-1.19,66.64l8.23,1.82s10.34-46.63.77-63.77a23.39,23.39,0,0,0-7.81-4.69"/><path class="cls-1" d="M1944.67,534.77c1.58,1,3.36,3,2.19,4.46a3.46,3.46,0,0,1-1.35.89c-1.89.86-3.9,1.94-4.72,3.85-1.2,2.79.62,6.19-.61,9-.66,1.49-2.13,2.56-2.58,4.13-.29,1-.13,2.11-.47,3.1a4.59,4.59,0,0,1-3.72,2.66,29.33,29.33,0,0,1-4.78,0c-5.46,0-9.84,2.73-12.8,7.32-2-5.8-2.69-13.85.38-20,1.84-3.66,5-6.66,6.19-10.58.53-1.74.7-3.68,1.86-5.07a7.23,7.23,0,0,1,3-1.93c5.62-2.19,12-.65,17.39,2.15"/><path class="cls-5" d="M1935.64,566.15s-1.64,1.75-.42,3.05c0,0-12-2.31-13.56,3.09,0,0,.66-2.81.8-3.07s2.31-4.93,13.18-3.07"/><path class="cls-5" d="M1946.69,533.17s-1.32,1.31-.56,2.2c0,0-8.11-5-16.92-3.35,0,0,7.18-3.39,17.48,1.15"/><path class="cls-6" d="M2110.83,562.93a94.75,94.75,0,0,0,21.22,1.36.64.64,0,0,1,.15,1.27c-6.51,1.29-15.94,2.41-23.83.4Z"/><path class="cls-4" d="M2267.1,629.22l-49.66-2.6,11.92,21h26.55Z"/><path class="cls-1" d="M517.12,906.78a2.07,2.07,0,1,1,2.43-1.63,2.07,2.07,0,0,1-2.43,1.63"/></svg>